<?xml version="1.0" encoding="utf-8"?>
<!-- Generator: Adobe Illustrator 22.1.0, SVG Export Plug-In . SVG Version: 6.00 Build 0)  -->
<svg version="1.1" id="Layer_1" xmlns="http://www.w3.org/2000/svg" xmlns:xlink="http://www.w3.org/1999/xlink" x="0px" y="0px"
	 viewBox="0 0 74 38" style="enable-background:new 0 0 74 38;" xml:space="preserve">
<style type="text/css">
	.st0{fill-rule:evenodd;clip-rule:evenodd;fill:#165680;}
	.st1{fill-rule:evenodd;clip-rule:evenodd;fill:url(#SVGID_1_);}
	.st2{fill-rule:evenodd;clip-rule:evenodd;fill:#AE2023;}
</style>
<g>
	<g>
		<path class="st0" d="M13.5,22.9c0,0.2,0,0.3,0.1,0.4c0.2,0.8,0.9,1.4,1.8,1.4c1.3,0,2-1,2-2.5c0-1.3-0.7-2.5-2-2.5
			c-0.8,0-1.6,0.6-1.8,1.5c0,0.1-0.1,0.3-0.1,0.5V22.9L13.5,22.9z M12.3,15.9L12.3,15.9h1.2V20h0c0.4-0.7,1.2-1.2,2.3-1.2
			c1.6,0,2.8,1.4,2.8,3.4c0,2.4-1.5,3.5-3,3.5c-1,0-1.7-0.4-2.2-1.2h0l-0.1,1.1h-1c0-0.5,0.1-1.1,0.1-1.7V15.9z"/>
		<path class="st0" d="M23.4,22.2c-1.3,0-2.8,0.2-2.8,1.5c0,0.8,0.5,1.2,1.1,1.2c0.9,0,1.4-0.5,1.6-1.1c0-0.1,0.1-0.3,0.1-0.4V22.2
			L23.4,22.2z M24.6,24L24.6,24c0,0.6,0,1.1,0.1,1.6h-1.1l-0.1-0.8h0c-0.4,0.5-1.1,1-2,1c-1.3,0-2-0.9-2-1.9c0-1.6,1.4-2.5,4-2.5
			v-0.1c0-0.5-0.2-1.5-1.5-1.5c-0.6,0-1.3,0.2-1.7,0.5l-0.3-0.8c0.5-0.4,1.3-0.6,2.2-0.6c2,0,2.5,1.4,2.5,2.7V24z"/>
		<path class="st0" d="M26.4,20.8c0-0.7,0-1.2-0.1-1.8h1.1l0.1,1.1h0c0.3-0.6,1.1-1.2,2.2-1.2c0.9,0,2.3,0.5,2.3,2.8v4h-1.2v-3.8
			c0-1.1-0.4-2-1.5-2c-0.8,0-1.4,0.6-1.6,1.2c-0.1,0.1-0.1,0.4-0.1,0.6v4h-1.2V20.8z"/>
		<path class="st0" d="M35,22L35,22c0.2-0.2,0.4-0.5,0.6-0.8l1.9-2.3h1.5l-2.6,2.7l2.9,3.9h-1.5l-2.3-3.2L35,23.1v2.5h-1.2v-9.7H35
			V22z"/>
		<path class="st0" d="M46.6,24.3c-1,0-1.8-1-1.8-2.3c0-1.3,0.8-2.3,1.8-2.3c1,0,1.7,1,1.7,2.3C48.4,23.2,47.6,24.3,46.6,24.3
			L46.6,24.3z M49.3,19.2L49.3,19.2c0-0.1-0.1-0.1-0.1-0.2C49.1,19,49,18.9,49,18.8c-0.5-0.4-1.1-0.6-1.8-0.6
			c-0.7,0-1.3,0.3-1.9,0.8c0,0,0,0,0,0c0,0,0,0-0.1,0c-0.1,0-0.2-0.1-0.2-0.2V16c0-0.2-0.1-0.3-0.3-0.3h-1.3c-0.2,0-0.3,0.1-0.3,0.3
			v0.1c0,0,0,0,0,0v0.3l0,8.7c0,0.2,0.1,0.3,0.3,0.3h1.2c0.1,0,0.1,0,0.2-0.1c0,0,0,0,0,0c0,0,0,0,0,0c0,0,0,0,0.1-0.1h0
			c0,0,0-0.1,0-0.1c0-0.2,0.2-0.3,0.2-0.3c0,0,0.1,0,0.1,0c0,0,0.1,0,0.1,0.1c0.1,0.1,0.4,0.3,0.7,0.4c0.1,0.1,0.6,0.2,1.1,0.2
			c0.5,0,0.9-0.1,1-0.1c0.1,0,0.2-0.1,0.3-0.1c0.4-0.2,0.7-0.4,1-0.7c0.2-0.3,0.4-0.6,0.6-1c0.2-0.5,0.4-1.1,0.4-1.8
			C50.3,20.8,49.9,19.9,49.3,19.2z"/>
		<path class="st0" d="M53.7,18.9C53.7,18.9,53.7,18.9,53.7,18.9l0-0.3c0-0.2-0.1-0.3-0.3-0.3h-1.3c-0.2,0-0.3,0.1-0.3,0.3v7.2
			c0,0.2-0.2,0.4-0.5,0.5c-0.1,0-0.2,0.1-0.4,0c-0.1,0-0.2,0-0.2,0.1c0,0,0,0.1,0,0.2c0,0.1,0,0.8,0,0.9c0,0.1,0,0.1,0,0.2
			c0.1,0.1,0.2,0.1,0.3,0.2c0,0,0.9,0,1.5-0.1c0.2-0.1,0.4-0.2,0.6-0.3c0.2-0.1,0.3-0.3,0.4-0.5c0.1-0.2,0.2-0.5,0.2-0.8
			c0-0.1,0-0.4,0-0.4v-6.5c0,0,0-0.1,0-0.1C53.8,19.1,53.8,19,53.7,18.9z"/>
		<path class="st0" d="M58.8,24.3c-1,0-1.8-1-1.8-2.3c0-1.3,0.8-2.3,1.8-2.3c1,0,1.7,1,1.7,2.3C60.6,23.2,59.8,24.3,58.8,24.3
			L58.8,24.3z M61.6,19.2L61.6,19.2c0-0.1-0.1-0.1-0.1-0.2c-0.1-0.1-0.2-0.2-0.3-0.2c-0.5-0.4-1.1-0.6-1.8-0.6
			c-0.7,0-1.3,0.3-1.9,0.8c0,0,0,0,0,0c0,0,0,0-0.1,0c-0.1,0-0.2-0.1-0.2-0.2V16c0-0.2-0.1-0.3-0.3-0.3h-1.3c-0.2,0-0.3,0.1-0.3,0.3
			v0.1c0,0,0,0,0,0v0.3l0,8.7c0,0.2,0.1,0.3,0.3,0.3h1.2c0.1,0,0.1,0,0.2-0.1c0,0,0,0,0,0c0,0,0,0,0,0c0,0,0,0,0.1-0.1l0,0
			c0,0,0-0.1,0-0.1c0-0.2,0.2-0.3,0.2-0.3c0,0,0.1,0,0.1,0c0,0,0.1,0,0.1,0.1c0.1,0.1,0.4,0.3,0.7,0.4c0.1,0.1,0.6,0.2,1.1,0.2
			c0.5,0,0.9-0.1,1-0.1c0.1,0,0.2-0.1,0.3-0.1c0.4-0.2,0.7-0.4,1-0.7c0.2-0.3,0.4-0.6,0.6-1c0.2-0.5,0.4-1.1,0.4-1.8
			C62.5,20.8,62.1,19.9,61.6,19.2z"/>
		<path class="st0" d="M52.7,15.8c-0.2,0-0.4,0-0.5,0.1c-0.1,0.1-0.2,0.2-0.3,0.3c-0.1,0.1-0.1,0.3-0.1,0.5c0,0.2,0,0.3,0.1,0.5
			c0.1,0.1,0.2,0.3,0.3,0.3c0.1,0.1,0.3,0.1,0.5,0.1c0.2,0,0.4,0,0.5-0.1c0.1-0.1,0.3-0.2,0.3-0.3c0.1-0.1,0.1-0.3,0.1-0.5
			c0-0.2,0-0.3-0.1-0.5c-0.1-0.1-0.2-0.3-0.3-0.3C53.1,15.8,52.9,15.8,52.7,15.8z"/>
		<linearGradient id="SVGID_1_" gradientUnits="userSpaceOnUse" x1="28.0063" y1="8.4659" x2="43.6747" y2="6.5485">
			<stop  offset="0" style="stop-color:#214882"/>
			<stop  offset="1" style="stop-color:#FFC421"/>
		</linearGradient>
		<path class="st1" d="M42.7,1.8C41,4.6,36.2,6.7,28.6,8.2c0.1-0.6,0.1-1.2,0.2-1.7C34.1,6,38.7,4.2,42.7,1.8L42.7,1.8z M42,4.6
			C38,7,33.5,8.7,28.1,9.3C28.1,9.8,28,10.4,28,11C35.6,9.5,40.4,7.4,42,4.6L42,4.6z M41.4,7c-4,2.4-8.5,4.2-13.9,4.7
			c-0.1,0.6-0.1,1.2-0.2,1.7C35,11.9,39.8,9.8,41.4,7z"/>
	</g>
	<path class="st2" d="M26.4,29c-0.2-0.1-0.6-0.3-1-0.3c-0.9,0-1.5,0.6-1.5,1.3c0,0.5,0.3,0.9,1.1,1.2c0.5,0.2,0.7,0.4,0.7,0.7
		c0,0.3-0.2,0.6-0.7,0.6c-0.4,0-0.8-0.2-1-0.3L23.8,33c0.3,0.2,0.7,0.3,1.2,0.3c1,0,1.6-0.5,1.6-1.3c0-0.6-0.4-1-1.1-1.3
		c-0.5-0.2-0.7-0.4-0.7-0.7c0-0.3,0.2-0.5,0.6-0.5c0.4,0,0.7,0.1,0.8,0.2L26.4,29L26.4,29z M30,28.8l-0.7,2.5
		c-0.1,0.3-0.2,0.6-0.2,0.9h0c-0.1-0.3-0.2-0.6-0.2-0.9L28,28.8h-1l1.5,4c0,0.1,0,0.1,0,0.2c0,0.1-0.3,1-1.3,1.3l0.2,0.8
		c0.2,0,0.6-0.2,1-0.6c0.5-0.5,0.9-1.3,1.4-2.7l1.1-3H30L30,28.8z M34.6,30.5c0-0.9-0.4-1.8-1.6-1.8c-0.6,0-1.1,0.2-1.4,0.4l0.2,0.6
		c0.3-0.2,0.7-0.3,1.1-0.3c0.9,0,0.9,0.6,0.9,1c-1.5,0-2.4,0.5-2.4,1.6c0,0.7,0.5,1.3,1.3,1.3c0.5,0,1-0.3,1.2-0.6h0l0.1,0.5h0.8
		c-0.1-0.3-0.1-0.7-0.1-1V30.5L34.6,30.5z M33.8,31.7c0,0.5-0.4,0.9-0.9,0.9c-0.3,0-0.6-0.2-0.6-0.7c0-0.8,0.8-0.9,1.5-0.9V31.7
		L33.8,31.7z M38,28.7c-0.1,0-0.1,0-0.2,0c-0.5,0-0.9,0.3-1.1,0.9h0l0-0.8h-0.8c0,0.4,0,0.8,0,1.3v3h0.9v-2.3c0-0.8,0.4-1.3,1-1.3
		c0.1,0,0.2,0,0.3,0V28.7L38,28.7z M39.7,27.6c0-0.3-0.2-0.5-0.5-0.5c-0.3,0-0.5,0.2-0.5,0.5c0,0.3,0.2,0.5,0.5,0.5
		C39.5,28.1,39.7,27.9,39.7,27.6L39.7,27.6z M39.6,28.8h-0.9v4.4h0.9V28.8L39.6,28.8z M43.8,30.5c0-0.9-0.4-1.8-1.6-1.8
		c-0.6,0-1.1,0.2-1.4,0.4l0.2,0.6c0.3-0.2,0.7-0.3,1.1-0.3c0.9,0,0.9,0.6,0.9,1c-1.5,0-2.4,0.5-2.4,1.6c0,0.7,0.5,1.3,1.3,1.3
		c0.5,0,1-0.3,1.2-0.6h0l0.1,0.5h0.8c-0.1-0.3-0.1-0.7-0.1-1V30.5L43.8,30.5z M43,31.7c0,0.5-0.4,0.9-0.9,0.9
		c-0.3,0-0.6-0.2-0.6-0.7c0-0.8,0.8-0.9,1.5-0.9V31.7L43,31.7z M48.6,30.5c0-1.4-0.8-1.8-1.4-1.8c-0.5,0-1,0.2-1.2,0.7h0v-2.6H45
		v6.3h0.9v-2.7c0-0.7,0.5-1,0.9-1c0.6,0,0.8,0.5,0.8,1.1v2.5h0.9V30.5z"/>
</g>
</svg>
