<svg width="76" height="28" viewBox="0 0 76 28" fill="none" xmlns="http://www.w3.org/2000/svg">
<g clip-path="url(#clip0_34_73)">
<path fill-rule="evenodd" clip-rule="evenodd" d="M25.9814 0.00463867C26.86 0.604889 27.7538 1.51547 27.7538 2.39514V17.8955C27.7538 18.7641 26.9331 19.9926 26.186 20.482C28.8218 20.482 31.4582 20.482 34.0939 20.482C39.21 20.2714 42.3134 18.4281 42.6846 14.5635C42.9448 11.8527 41.5097 9.74455 37.9836 8.55572C39.7425 7.8878 40.6884 6.43297 40.7749 4.42689C40.9233 0.975305 36.8981 0.00463867 34.3664 0.00463867H25.9814V0.00463867ZM30.89 8.30431V1.84156H33.3165C36.0698 1.84156 37.3663 3.18964 37.3663 5.22139C37.3657 7.25314 35.5039 8.30431 33.1809 8.30431H30.89ZM33.4767 18.5091H30.89V10.1412H33.821C38.1882 10.1412 39.5093 12.7616 39.2749 14.9036C39.0405 17.045 37.1962 18.5091 33.4767 18.5091ZM49.6473 0.00463867H45.3502C46.306 1.06572 46.7227 1.62281 46.7227 3.26781V17.3938C46.7227 19.0207 45.9997 20.0194 44.9632 20.7258H50.6808C49.832 20.209 48.9178 19.1934 48.9178 17.3565V4.87722C51.8067 8.72722 54.695 12.5778 57.5833 16.4284C59.2212 18.5663 61.1198 20.3787 63.3336 21.798V3.19314C63.3336 1.32997 64.0865 0.619472 65.0937 0.00463867H59.5193C60.5294 0.752472 61.0649 1.59772 61.0649 3.11906V15.5785L49.6473 0.00463867V0.00463867ZM68.2573 20.7258C69.4141 19.9605 70.0022 19.0621 70.0022 17.8955V3.09922C70.0022 1.34981 69.4966 0.954305 68.504 0.00463867H75.1031C73.9643 0.644555 73.1653 1.95122 73.1653 3.09922V17.8546C73.1653 18.9869 73.8363 20.0241 74.7471 20.7258H68.2573Z" fill="#007697"/>
<path fill-rule="evenodd" clip-rule="evenodd" d="M0.0686035 0.00463867H6.43912C6.10592 0.574555 5.85398 1.85556 6.49816 4.73256C7.07103 7.28989 8.7265 9.95806 10.4539 12.0668L8.2834 13.8448L0.0686035 3.54489V0.00463867H0.0686035ZM9.37127 0.00463867H20.586V2.71656C19.7185 2.21081 18.1367 1.72197 15.8137 2.64889C12.0661 4.14514 11.7452 8.52597 11.7452 8.52597C9.67173 6.02697 8.30796 1.92964 9.37127 0.00463867ZM20.586 6.31397V14.385C18.0373 15.3504 14.4634 12.8409 13.5649 9.86122C12.2637 5.54339 15.332 3.98472 17.527 4.41231C19.1673 4.73139 20.1195 5.70731 20.586 6.31397ZM20.586 15.7103V20.4796H13.7128L15.0906 19.3509C14.1915 19.46 12.425 19.0382 11.5651 17.9596L9.14563 14.9257L11.3576 13.1139C12.7167 14.609 14.0109 15.6835 14.7428 16.0055C16.31 16.6956 18.0753 17.0286 20.586 15.7103ZM9.87457 20.4796H2.36592L7.04414 16.6471C7.42703 17.1272 7.79705 17.591 8.14779 18.0314C8.83698 18.8953 9.41569 19.7487 9.87457 20.4796ZM0.184346 20.4796H0.0686035V7.90064C1.85501 10.1406 4.13772 13.0025 6.18192 15.5662L0.184346 20.4796Z" fill="#EC6722"/>
<path fill-rule="evenodd" clip-rule="evenodd" d="M71.0627 26.3882L71.4485 26.3316C71.4713 26.4786 71.5275 26.5918 71.6298 26.6822C71.7321 26.7616 71.8683 26.8071 72.0495 26.8071C72.2196 26.8071 72.3558 26.7616 72.4464 26.6933C72.5259 26.6256 72.5715 26.5352 72.5715 26.4331C72.5715 26.3538 72.537 26.2861 72.4581 26.2296C72.4014 26.1957 72.2652 26.1502 72.0612 26.1053C71.7777 26.0254 71.5731 25.9694 71.4714 25.9128C71.3579 25.8562 71.2668 25.788 71.2101 25.6976C71.1534 25.6071 71.1306 25.5051 71.1306 25.3919C71.1306 25.2898 71.1533 25.1883 71.1989 25.109C71.2439 25.018 71.3123 24.9503 71.3918 24.8937C71.4485 24.8482 71.5392 24.8033 71.6415 24.7806C71.7432 24.7467 71.8566 24.724 71.97 24.724C72.1518 24.724 72.3102 24.7578 72.4464 24.8033C72.5826 24.8599 72.6849 24.9276 72.7527 25.018C72.8094 25.109 72.855 25.2221 72.8889 25.3691L72.5037 25.4257C72.4803 25.3015 72.4353 25.2111 72.3558 25.1428C72.2763 25.0862 72.1518 25.0524 72.0045 25.0524C71.8227 25.0524 71.6982 25.0746 71.6187 25.1317C71.5392 25.1994 71.5053 25.2676 71.5053 25.3464C71.5053 25.3919 71.5275 25.4374 71.5508 25.4823C71.5848 25.5161 71.6298 25.5506 71.6982 25.5844C71.7432 25.5955 71.8566 25.6293 72.0495 25.6859C72.3219 25.7541 72.5148 25.8107 72.6165 25.8673C72.7305 25.9128 72.8211 25.9805 72.8778 26.0709C72.9345 26.1502 72.9684 26.2634 72.9684 26.3993C72.9684 26.5236 72.9345 26.6484 72.855 26.7616C72.7872 26.8747 72.6738 26.9651 72.5259 27.0334C72.3897 27.09 72.2313 27.1238 72.0495 27.1238C71.7432 27.1238 71.5164 27.0561 71.369 26.9313C71.2101 26.8071 71.1083 26.6256 71.0627 26.3882ZM74.307 25.7425C74.5678 25.7086 74.7607 25.6637 74.8969 25.6182C74.8969 25.5616 74.8969 25.5278 74.8969 25.5161C74.8969 25.3581 74.863 25.2449 74.7835 25.1766C74.6923 25.0979 74.545 25.0524 74.3409 25.0524C74.3293 25.0524 74.3181 25.0524 74.307 25.0524C74.148 25.0524 74.0229 25.0862 73.944 25.1428C73.8534 25.2111 73.785 25.3242 73.7511 25.4823L73.3653 25.4374C73.3992 25.2676 73.4559 25.1428 73.5354 25.0413C73.6149 24.9392 73.7283 24.8599 73.8873 24.8144C74.0118 24.7695 74.148 24.7351 74.307 24.7351C74.3409 24.724 74.3749 24.724 74.3977 24.724C74.6017 24.724 74.7607 24.7578 74.8741 24.8033C74.9986 24.8482 75.0898 24.9054 75.1465 24.9731C75.2032 25.0413 75.2482 25.1317 75.271 25.2332C75.2821 25.3015 75.2938 25.4257 75.2938 25.5955V26.1053C75.2938 26.467 75.2938 26.705 75.3166 26.7954C75.3277 26.8858 75.3616 26.9879 75.4183 27.0672H75.0103C74.9647 26.9879 74.9419 26.8975 74.9308 26.7843C74.7835 26.9086 74.6473 26.9996 74.5111 27.0445C74.4432 27.0672 74.3748 27.09 74.307 27.1011C74.2386 27.1121 74.1591 27.1238 74.0802 27.1238C73.8306 27.1238 73.6377 27.0561 73.5015 26.9424C73.3653 26.8181 73.2975 26.6595 73.2975 26.467C73.2975 26.3538 73.3314 26.2523 73.3764 26.1619C73.4337 26.0709 73.4898 25.9916 73.581 25.935C73.6599 25.8784 73.7511 25.8335 73.8534 25.8107C73.9323 25.788 74.0457 25.7652 74.2047 25.7541C74.2386 25.7425 74.2726 25.7425 74.307 25.7425ZM74.307 26.8071C74.4088 26.7954 74.4994 26.7616 74.5789 26.7161C74.6923 26.6595 74.7835 26.5691 74.8402 26.4559C74.8741 26.3655 74.8969 26.2296 74.8969 26.0598V25.9239C74.7607 25.9805 74.5678 26.0254 74.307 26.0598C74.2953 26.0598 74.2726 26.0709 74.2614 26.0709C74.1024 26.0936 73.989 26.1164 73.9212 26.1502C73.8534 26.173 73.8078 26.2185 73.7733 26.2751C73.7283 26.3316 73.7172 26.3882 73.7172 26.4559C73.7172 26.558 73.7511 26.6484 73.8306 26.7161C73.9101 26.7843 74.0229 26.8181 74.1819 26.8181C74.2275 26.8181 74.2614 26.8181 74.307 26.8071ZM0.192627 27.0672V23.9091H0.827457L1.57628 26.1502C1.64467 26.3538 1.70137 26.5125 1.72359 26.6146C1.76918 26.5014 1.82588 26.3316 1.89369 26.1053L2.65362 23.9091H3.22122V27.0672H2.81262V24.43L1.89369 27.0672H1.51957L0.600649 24.3845V27.0672H0.192627ZM6.29483 27.0672V23.9091H6.69175V27.0672H6.29483ZM4.77498 25.7086H5.4215C5.3987 25.5161 5.35369 25.3691 5.27419 25.2676C5.1491 25.1201 4.99068 25.0524 4.79778 25.0524C4.78667 25.0524 4.78667 25.0524 4.77498 25.0524C4.60487 25.0524 4.45757 25.109 4.34416 25.2221C4.21907 25.3464 4.15126 25.5051 4.13957 25.7086H4.77498ZM4.77498 26.8071C4.78667 26.8071 4.79778 26.8071 4.80888 26.8071C4.95678 26.8071 5.07018 26.7616 5.1719 26.6933C5.27419 26.6146 5.35369 26.5014 5.4215 26.3316L5.81842 26.3766C5.75061 26.6146 5.6372 26.7954 5.4671 26.9313C5.29699 27.0561 5.07018 27.1238 4.80888 27.1238C4.79778 27.1238 4.78667 27.1238 4.77498 27.1238C4.45757 27.1121 4.19627 27.0106 4.01505 26.8071C3.81104 26.6029 3.72044 26.32 3.72044 25.9466C3.72044 25.5616 3.81104 25.256 4.01505 25.0524C4.20796 24.8371 4.46867 24.7351 4.77498 24.724C4.78667 24.724 4.78667 24.724 4.78667 24.724C5.0924 24.724 5.342 24.8371 5.53491 25.0413C5.73892 25.2449 5.83011 25.5389 5.83011 25.9239C5.83011 25.9466 5.83011 25.9805 5.83011 26.0254H4.77498H4.11735C4.12846 26.2751 4.20796 26.467 4.33247 26.6029C4.45757 26.7277 4.60487 26.7954 4.77498 26.8071ZM9.73204 27.9504L9.68644 27.5876C9.77705 27.6103 9.84544 27.622 9.91325 27.622C9.99275 27.622 10.0606 27.6103 10.1173 27.5765C10.174 27.5537 10.2085 27.5088 10.2424 27.4522C10.2763 27.4178 10.3102 27.3274 10.3669 27.1693C10.3669 27.1466 10.3786 27.1121 10.4014 27.0783L9.52744 24.7806H9.94715L10.4236 26.1053C10.492 26.2751 10.5487 26.4559 10.5937 26.6367C10.6393 26.4559 10.6849 26.2861 10.7527 26.1164L11.2402 24.7806H11.626L10.7527 27.1121C10.6621 27.3612 10.5937 27.531 10.537 27.6331C10.4692 27.7579 10.3897 27.8483 10.2991 27.9049C10.2085 27.9726 10.1062 27.9953 9.98106 27.9953C9.90214 27.9953 9.82264 27.9842 9.73204 27.9504ZM8.16659 25.7425C8.4273 25.7086 8.62021 25.6637 8.75641 25.6182C8.75641 25.5616 8.75641 25.5278 8.75641 25.5161C8.75641 25.3581 8.7225 25.2449 8.643 25.1766C8.54071 25.0979 8.3934 25.0524 8.20049 25.0524C8.18939 25.0524 8.1777 25.0524 8.16659 25.0524C7.99648 25.0524 7.88308 25.0862 7.79189 25.1428C7.71297 25.2111 7.64458 25.3242 7.59957 25.4823L7.22486 25.4374C7.25935 25.2676 7.31606 25.1428 7.39497 25.0413C7.47447 24.9392 7.58788 24.8599 7.73518 24.8144C7.86028 24.7695 8.00759 24.7351 8.16659 24.7351C8.18939 24.724 8.22329 24.724 8.2572 24.724C8.4501 24.724 8.6091 24.7578 8.73361 24.8033C8.85812 24.8482 8.94931 24.9054 9.00601 24.9731C9.06272 25.0413 9.10831 25.1317 9.13053 25.2332C9.14163 25.3015 9.14163 25.4257 9.14163 25.5955V26.1053C9.14163 26.467 9.15332 26.705 9.17612 26.7954C9.18723 26.8858 9.22172 26.9879 9.26673 27.0672H8.85812C8.82422 26.9879 8.802 26.8975 8.79031 26.7843C8.643 26.9086 8.5068 26.9996 8.3706 27.0445C8.30279 27.0672 8.2344 27.09 8.16659 27.1011C8.08709 27.1121 8.0187 27.1238 7.93978 27.1238C7.69017 27.1238 7.49727 27.0561 7.36107 26.9424C7.22487 26.8181 7.15706 26.6595 7.15706 26.467C7.15706 26.3538 7.17985 26.2523 7.23656 26.1619C7.28157 26.0709 7.34996 25.9916 7.42946 25.935C7.52007 25.8784 7.61067 25.8335 7.71297 25.8107C7.79189 25.788 7.90529 25.7652 8.06429 25.7541C8.0982 25.7425 8.1321 25.7425 8.16659 25.7425ZM8.16659 26.8071C8.2572 26.7954 8.3478 26.7616 8.43899 26.7161C8.5524 26.6595 8.63131 26.5691 8.68801 26.4559C8.73361 26.3655 8.75641 26.2296 8.75641 26.0598V25.9239C8.62021 25.9805 8.4273 26.0254 8.16659 26.0598C8.14379 26.0598 8.1321 26.0709 8.12099 26.0709C7.96199 26.0936 7.84917 26.1164 7.78078 26.1502C7.71297 26.173 7.65627 26.2185 7.62178 26.2751C7.58788 26.3316 7.57677 26.3882 7.57677 26.4559C7.57677 26.558 7.61067 26.6484 7.69017 26.7161C7.76967 26.7843 7.88308 26.8181 8.03039 26.8181C8.07598 26.8181 8.12099 26.8181 8.16659 26.8071ZM19.1352 27.0672V23.9091H19.5661L21.2332 26.3882V23.9091H21.6307V27.0672H21.1993L19.5433 24.5881V27.0672H19.1352ZM16.8777 27.0672V24.7806H17.2752V27.0672H16.8777ZM16.8777 24.3617V23.9091H17.2752V24.3617H16.8777ZM14.4167 27.0672V24.7806H14.768V25.109C14.9381 24.8599 15.1877 24.724 15.5051 24.724C15.6413 24.724 15.7664 24.7578 15.8798 24.8033C15.9932 24.8482 16.0838 24.9165 16.1406 24.9958C16.1973 25.0746 16.2428 25.1766 16.2651 25.2898C16.2768 25.3581 16.2879 25.4823 16.2879 25.6637V27.0672H15.8909V25.6748C15.8909 25.5161 15.8798 25.403 15.8454 25.3242C15.8231 25.2449 15.7664 25.1766 15.6869 25.1317C15.6074 25.0862 15.5279 25.0635 15.4145 25.0635C15.2555 25.0635 15.1082 25.1201 14.9948 25.2221C14.8703 25.3242 14.8136 25.5278 14.8136 25.8224V27.0672H14.4167ZM12.8401 25.7425C13.1008 25.7086 13.2938 25.6637 13.4294 25.6182C13.4294 25.5616 13.4294 25.5278 13.4294 25.5161C13.4294 25.3581 13.3955 25.2449 13.316 25.1766C13.2143 25.0979 13.0664 25.0524 12.874 25.0524C12.8623 25.0524 12.8512 25.0524 12.8401 25.0524C12.6694 25.0524 12.5449 25.0862 12.4654 25.1428C12.3859 25.2111 12.3181 25.3242 12.2725 25.4823L11.8984 25.4374C11.9323 25.2676 11.989 25.1428 12.0685 25.0413C12.148 24.9392 12.2614 24.8599 12.4087 24.8144C12.5338 24.7695 12.6811 24.7351 12.8401 24.7351C12.8623 24.724 12.8963 24.724 12.9307 24.724C13.1231 24.724 13.2821 24.7578 13.4072 24.8033C13.5317 24.8482 13.6223 24.9054 13.679 24.9731C13.7357 25.0413 13.7702 25.1317 13.8041 25.2332C13.8152 25.3015 13.8152 25.4257 13.8152 25.5955V26.1053C13.8152 26.467 13.8269 26.705 13.838 26.7954C13.8608 26.8858 13.8947 26.9879 13.9403 27.0672H13.5317C13.4978 26.9879 13.4639 26.8975 13.4522 26.7843C13.316 26.9086 13.1798 26.9996 13.0441 27.0445C12.9758 27.0672 12.9079 27.09 12.8401 27.1011C12.7606 27.1121 12.6922 27.1238 12.6127 27.1238C12.3631 27.1238 12.1702 27.0561 12.0346 26.9424C11.8984 26.8181 11.83 26.6595 11.83 26.467C11.83 26.3538 11.8528 26.2523 11.9095 26.1619C11.9551 26.0709 12.0229 25.9916 12.1024 25.935C12.193 25.8784 12.2842 25.8335 12.3859 25.8107C12.4654 25.788 12.5788 25.7652 12.7261 25.7541C12.7717 25.7425 12.8056 25.7425 12.8401 25.7425ZM12.8401 26.8071C12.9307 26.7954 13.0213 26.7616 13.1008 26.7161C13.2254 26.6595 13.3049 26.5691 13.3616 26.4559C13.4072 26.3655 13.4294 26.2296 13.4294 26.0598V25.9239C13.2938 25.9805 13.0892 26.0254 12.8401 26.0598C12.8173 26.0598 12.8056 26.0709 12.7945 26.0709C12.6355 26.0936 12.5221 26.1164 12.4543 26.1502C12.3859 26.173 12.3292 26.2185 12.2953 26.2751C12.2614 26.3316 12.2386 26.3882 12.2386 26.4559C12.2386 26.558 12.2842 26.6484 12.3631 26.7161C12.4426 26.7843 12.556 26.8181 12.7039 26.8181C12.7489 26.8181 12.7945 26.8181 12.8401 26.8071ZM23.2184 25.7086H23.8649C23.8427 25.5161 23.7971 25.3691 23.7176 25.2676C23.5925 25.1201 23.4341 25.0524 23.2301 25.0524C23.2301 25.0524 23.2301 25.0524 23.2184 25.0524C23.0483 25.0524 22.901 25.109 22.7876 25.2221C22.6625 25.3464 22.5947 25.5051 22.583 25.7086H23.2184ZM23.2184 26.8071C23.2301 26.8071 23.2412 26.8071 23.2523 26.8071C23.4002 26.8071 23.5136 26.7616 23.6153 26.6933C23.7176 26.6146 23.7971 26.5014 23.8538 26.3316L24.2618 26.3766C24.194 26.6146 24.0806 26.7954 23.9105 26.9313C23.7404 27.0561 23.5136 27.1238 23.2523 27.1238C23.2412 27.1238 23.2301 27.1238 23.2184 27.1238C22.901 27.1121 22.6397 27.0106 22.4474 26.8071C22.2544 26.6029 22.1522 26.32 22.1522 25.9466C22.1522 25.5616 22.2544 25.256 22.4585 25.0524C22.6514 24.8371 22.9121 24.7351 23.2184 24.724H23.2301C23.5358 24.724 23.786 24.8371 23.9783 25.0413C24.1712 25.2449 24.2735 25.5389 24.2735 25.9239C24.2735 25.9466 24.2735 25.9805 24.2735 26.0254H23.2184H22.5608C22.5719 26.2751 22.6397 26.467 22.7759 26.6029C22.8899 26.7277 23.0483 26.7954 23.2184 26.8071ZM25.6233 26.7499C25.8045 26.7499 25.9524 26.6822 26.0769 26.5463C26.202 26.4104 26.2587 26.1957 26.2587 25.9011C26.2587 25.6182 26.1903 25.403 26.0658 25.2676C25.9524 25.1201 25.8045 25.0524 25.6233 25.0524C25.4415 25.0524 25.3058 25.1201 25.1807 25.256C25.0562 25.403 24.9995 25.6071 24.9995 25.8901C24.9995 26.1841 25.0562 26.3993 25.1807 26.5463C25.2942 26.6822 25.4415 26.7499 25.6233 26.7499ZM25.6233 27.6786C25.7817 27.6669 25.9068 27.6331 25.9974 27.5654C26.0997 27.4971 26.1564 27.3956 26.202 27.2708C26.2131 27.1915 26.2242 27.0217 26.2242 26.7732C26.0658 26.9651 25.8612 27.0561 25.6233 27.0672C25.6116 27.0672 25.6005 27.0672 25.5894 27.0672C25.2714 27.0672 25.0334 26.9541 24.8516 26.7277C24.6815 26.5014 24.602 26.2296 24.602 25.9128C24.602 25.6976 24.6365 25.494 24.7154 25.3126C24.7955 25.1201 24.9089 24.9841 25.0562 24.8826C25.2147 24.7806 25.3848 24.724 25.5894 24.724C25.6005 24.724 25.6116 24.724 25.6233 24.724C25.884 24.7351 26.0886 24.8482 26.2587 25.0524V24.7806H26.6211V26.7616C26.6211 27.1121 26.5872 27.3729 26.5077 27.5199C26.4399 27.6669 26.3265 27.7801 26.1675 27.8711C26.0202 27.9504 25.839 27.9953 25.6233 27.9953C25.6116 27.9953 25.6005 27.9953 25.5777 27.9953C25.3058 27.9953 25.0901 27.9387 24.92 27.8145C24.7499 27.6896 24.6704 27.5088 24.6704 27.2597L25.0562 27.3163C25.0673 27.4295 25.1129 27.5199 25.1807 27.5654C25.283 27.6441 25.4192 27.6786 25.5777 27.6786C25.6005 27.6786 25.6116 27.6786 25.6233 27.6786ZM34.6179 27.0672V23.9091H35.0376V25.4823L36.603 23.9091H37.17L35.8431 25.1883L37.2267 27.0672H36.6825L35.5485 25.4712L35.0376 25.9805V27.0672H34.6179ZM32.2247 27.0672V26.6256H32.6672V27.0672C32.6672 27.237 32.6444 27.3612 32.5766 27.4633C32.5199 27.5654 32.4293 27.6441 32.3042 27.6896L32.2025 27.531C32.2814 27.4971 32.3381 27.4406 32.3837 27.3729C32.4176 27.3046 32.4404 27.2031 32.4404 27.0672H32.2247ZM31.1473 27.0672V24.7806H31.5331V27.0672H31.1473ZM31.1473 24.3617V23.9091H31.5331V24.3617H31.1473ZM29.6614 27.0672V24.7806H30.0127V25.1317C30.1033 24.962 30.1828 24.8599 30.2623 24.8033C30.3307 24.7578 30.4213 24.724 30.5119 24.724C30.637 24.724 30.7726 24.7695 30.9088 24.8482L30.7726 25.2111C30.682 25.1545 30.5803 25.1317 30.4891 25.1317C30.4102 25.1317 30.3307 25.1545 30.2623 25.2111C30.1945 25.256 30.1489 25.3242 30.115 25.4146C30.07 25.5616 30.0472 25.7086 30.0472 25.8673V27.0672H29.6614ZM28.141 25.7086H28.7764C28.7653 25.5161 28.7197 25.3691 28.6402 25.2676C28.5157 25.1201 28.3455 25.0524 28.1526 25.0524H28.141C27.9714 25.0524 27.8235 25.109 27.699 25.2221C27.5856 25.3464 27.5172 25.5051 27.5061 25.7086H28.141ZM28.141 26.8071C28.1526 26.8071 28.1643 26.8071 28.1754 26.8071C28.3116 26.8071 28.4362 26.7616 28.5385 26.6933C28.6402 26.6146 28.7197 26.5014 28.7764 26.3316L29.1739 26.3766C29.1172 26.6146 29.0032 26.7954 28.822 26.9313C28.6519 27.0561 28.4362 27.1238 28.1754 27.1238C28.1643 27.1238 28.1526 27.1238 28.141 27.1238C27.8235 27.1121 27.5628 27.0106 27.3699 26.8071C27.177 26.6029 27.0753 26.32 27.0753 25.9466C27.0753 25.5616 27.177 25.256 27.3816 25.0524C27.5739 24.8371 27.8235 24.7351 28.141 24.724C28.141 24.724 28.141 24.724 28.1526 24.724C28.459 24.724 28.7086 24.8371 28.9015 25.0413C29.0938 25.2449 29.1961 25.5389 29.1961 25.9239C29.1961 25.9466 29.1961 25.9805 29.185 26.0254H28.141H27.4833C27.495 26.2751 27.5628 26.467 27.699 26.6029C27.8124 26.7277 27.9597 26.7954 28.141 26.8071ZM38.452 25.7086H39.0985C39.0757 25.5161 39.0307 25.3691 38.9512 25.2676C38.8261 25.1201 38.6677 25.0524 38.4631 25.0524C38.4631 25.0524 38.4631 25.0524 38.452 25.0524C38.2819 25.0524 38.1346 25.109 38.0212 25.2221C37.8961 25.3464 37.8283 25.5051 37.8166 25.7086H38.452ZM38.452 26.8071C38.4631 26.8071 38.4748 26.8071 38.4859 26.8071C38.6221 26.8071 38.7472 26.7616 38.8489 26.6933C38.9512 26.6146 39.0307 26.5014 39.0874 26.3316L39.4954 26.3766C39.4276 26.6146 39.3142 26.7954 39.1441 26.9313C38.9623 27.0561 38.7472 27.1238 38.4859 27.1238C38.4748 27.1238 38.4631 27.1238 38.452 27.1238C38.1346 27.1121 37.8733 27.0106 37.6921 26.8071C37.4991 26.6029 37.3974 26.32 37.3974 25.9466C37.3974 25.5616 37.4991 25.256 37.7032 25.0524C37.885 24.8371 38.1457 24.7351 38.452 24.724H38.4631C38.7694 24.724 39.019 24.8371 39.2119 25.0413C39.4048 25.2449 39.5071 25.5389 39.5071 25.9239C39.5071 25.9466 39.5071 25.9805 39.5071 26.0254H38.452H37.8055C37.8055 26.2751 37.8733 26.467 38.0095 26.6029C38.1235 26.7277 38.2708 26.7954 38.452 26.8071ZM40.9475 24.7351C40.9703 24.724 40.9814 24.724 40.9931 24.724C41.1404 24.724 41.2649 24.7578 41.4011 24.8144C41.5256 24.871 41.6279 24.9503 41.7074 25.0524C41.7869 25.1545 41.8547 25.2787 41.9003 25.4257C41.9459 25.5727 41.9681 25.7314 41.9681 25.8901C41.9681 26.2861 41.8664 26.5918 41.6735 26.7954C41.4806 27.0106 41.2421 27.1238 40.9703 27.1238C40.9703 27.1238 40.9586 27.1238 40.9475 27.1238C40.6979 27.1121 40.4938 26.9996 40.3348 26.7843V27.0672H39.9835V23.9091H40.3687V25.0413C40.5166 24.8482 40.7206 24.7351 40.9475 24.7351ZM40.9475 26.8071C41.1176 26.7954 41.2649 26.7277 41.3783 26.5807C41.5034 26.4331 41.5712 26.2185 41.5712 25.9239C41.5712 25.6293 41.5145 25.403 41.39 25.2676C41.2766 25.1201 41.1287 25.0524 40.9586 25.0524C40.9586 25.0524 40.9586 25.0524 40.9475 25.0524C40.7885 25.0524 40.6412 25.1201 40.5166 25.2676C40.3915 25.4146 40.3348 25.6293 40.3348 25.9128C40.3348 26.1841 40.3687 26.3766 40.4482 26.5014C40.5733 26.705 40.7318 26.8071 40.9475 26.8071ZM44.9061 27.0672V24.7806H45.2463V25.109C45.4164 24.8599 45.666 24.724 45.9834 24.724C46.1196 24.724 46.2447 24.7578 46.3581 24.8033C46.4826 24.8482 46.5621 24.9165 46.6188 24.9958C46.6755 25.0746 46.7211 25.1766 46.7434 25.2898C46.7551 25.3581 46.7662 25.4823 46.7662 25.6637V27.0672H46.3809V25.6748C46.3809 25.5161 46.3581 25.403 46.3353 25.3242C46.3014 25.2449 46.2447 25.1766 46.1652 25.1317C46.0968 25.0862 46.0062 25.0635 45.8928 25.0635C45.7338 25.0635 45.5865 25.1201 45.4731 25.2221C45.3486 25.3242 45.2919 25.5278 45.2919 25.8224V27.0672H44.9061ZM43.3178 25.7425C43.5791 25.7086 43.7715 25.6637 43.9082 25.6182C43.9082 25.5616 43.9082 25.5278 43.9082 25.5161C43.9082 25.3581 43.8738 25.2449 43.7948 25.1766C43.6925 25.0979 43.5447 25.0524 43.3523 25.0524C43.3406 25.0524 43.3295 25.0524 43.3178 25.0524C43.1477 25.0524 43.0343 25.0862 42.9437 25.1428C42.8642 25.2111 42.7964 25.3242 42.7508 25.4823L42.3767 25.4374C42.4106 25.2676 42.4673 25.1428 42.5468 25.0413C42.6263 24.9392 42.7397 24.8599 42.887 24.8144C43.0121 24.7695 43.1594 24.7351 43.3178 24.7351C43.3406 24.724 43.3745 24.724 43.409 24.724C43.6014 24.724 43.7604 24.7578 43.8855 24.8033C44.01 24.8482 44.1006 24.9054 44.1573 24.9731C44.214 25.0413 44.2596 25.1317 44.2824 25.2332C44.2935 25.3015 44.2935 25.4257 44.2935 25.5955V26.1053C44.2935 26.467 44.3052 26.705 44.3274 26.7954C44.3391 26.8858 44.373 26.9879 44.4186 27.0672H44.01C43.9761 26.9879 43.9533 26.8975 43.9422 26.7843C43.7948 26.9086 43.6581 26.9996 43.5224 27.0445C43.454 27.0672 43.3862 27.09 43.3178 27.1011C43.2389 27.1121 43.1705 27.1238 43.091 27.1238C42.8414 27.1238 42.6485 27.0561 42.5129 26.9424C42.3767 26.8181 42.3083 26.6595 42.3083 26.467C42.3083 26.3538 42.3311 26.2523 42.3878 26.1619C42.4334 26.0709 42.5012 25.9916 42.5807 25.935C42.6719 25.8784 42.7625 25.8335 42.8642 25.8107C42.9437 25.788 43.0571 25.7652 43.2161 25.7541C43.25 25.7425 43.2839 25.7425 43.3178 25.7425ZM43.3178 26.8071C43.409 26.7954 43.4996 26.7616 43.5791 26.7161C43.7037 26.6595 43.7831 26.5691 43.8399 26.4559C43.8854 26.3655 43.9082 26.2296 43.9082 26.0598V25.9239C43.7715 25.9805 43.5674 26.0254 43.3178 26.0598C43.2956 26.0598 43.2839 26.0709 43.2728 26.0709C43.1138 26.0936 43.0004 26.1164 42.9326 26.1502C42.8642 26.173 42.8075 26.2185 42.7736 26.2751C42.7397 26.3316 42.7286 26.3882 42.7286 26.4559C42.7286 26.558 42.7625 26.6484 42.8414 26.7161C42.9209 26.7843 43.0343 26.8181 43.1822 26.8181C43.2272 26.8181 43.2728 26.8181 43.3178 26.8071ZM48.241 26.7499C48.4222 26.7499 48.5701 26.6822 48.6835 26.5463C48.808 26.4104 48.8647 26.1957 48.8647 25.9011C48.8647 25.6182 48.808 25.403 48.6835 25.2676C48.5584 25.1201 48.4111 25.0524 48.241 25.0524C48.241 25.0524 48.241 25.0524 48.2299 25.0524C48.0592 25.0524 47.9119 25.1201 47.7874 25.256C47.674 25.403 47.6056 25.6071 47.6056 25.8901C47.6056 26.1841 47.674 26.3993 47.7874 26.5463C47.9119 26.6822 48.0592 26.7499 48.241 26.7499ZM48.241 27.6786C48.4 27.6669 48.5245 27.6331 48.6151 27.5654C48.7057 27.4971 48.7741 27.3956 48.808 27.2708C48.8308 27.1915 48.8419 27.0217 48.8419 26.7732C48.6718 26.9651 48.4789 27.0561 48.241 27.0672C48.2299 27.0672 48.2182 27.0672 48.2071 27.0672C47.8891 27.0672 47.6395 26.9541 47.4694 26.7277C47.2993 26.5014 47.2087 26.2296 47.2087 25.9128C47.2087 25.6976 47.2543 25.494 47.3338 25.3126C47.4127 25.1201 47.5261 24.9841 47.674 24.8826C47.8213 24.7806 48.0025 24.724 48.2071 24.724C48.2182 24.724 48.2299 24.724 48.241 24.724C48.4906 24.7351 48.7057 24.8482 48.8758 25.0524V24.7806H49.2394V26.7616C49.2394 27.1121 49.1938 27.3729 49.126 27.5199C49.0459 27.6669 48.9325 27.7801 48.7741 27.8711C48.6268 27.9504 48.4567 27.9953 48.241 27.9953C48.2299 27.9953 48.2071 27.9953 48.1954 27.9953C47.923 27.9953 47.6962 27.9387 47.5378 27.8145C47.3677 27.6896 47.2882 27.5088 47.2882 27.2597L47.6623 27.3163C47.6851 27.4295 47.7307 27.5199 47.7985 27.5654C47.9008 27.6441 48.0253 27.6786 48.1954 27.6786C48.2071 27.6786 48.2299 27.6786 48.241 27.6786ZM50.7026 26.7499C50.8838 26.7499 51.0311 26.6822 51.1445 26.5463C51.2696 26.4104 51.3263 26.1957 51.3263 25.9011C51.3263 25.6182 51.2696 25.403 51.1445 25.2676C51.02 25.1201 50.8727 25.0524 50.7026 25.0524H50.6909C50.5208 25.0524 50.3735 25.1201 50.249 25.256C50.135 25.403 50.0672 25.6071 50.0672 25.8901C50.0672 26.1841 50.135 26.3993 50.249 26.5463C50.3735 26.6822 50.5208 26.7499 50.7026 26.7499ZM50.7026 27.6786C50.861 27.6669 50.9861 27.6331 51.0767 27.5654C51.1673 27.4971 51.2357 27.3956 51.2696 27.2708C51.2918 27.1915 51.3035 27.0217 51.3035 26.7732C51.1334 26.9651 50.9405 27.0561 50.7026 27.0672C50.6909 27.0672 50.6798 27.0672 50.6681 27.0672C50.3507 27.0672 50.1011 26.9541 49.931 26.7277C49.7608 26.5014 49.6702 26.2296 49.6702 25.9128C49.6702 25.6976 49.7153 25.494 49.7948 25.3126C49.8742 25.1201 49.9877 24.9841 50.135 24.8826C50.2829 24.7806 50.4641 24.724 50.6681 24.724C50.6798 24.724 50.6909 24.724 50.7026 24.724C50.9516 24.7351 51.1673 24.8482 51.3374 25.0524V24.7806H51.6893V26.7616C51.6893 27.1121 51.6554 27.3729 51.587 27.5199C51.5075 27.6669 51.3941 27.7801 51.2357 27.8711C51.0878 27.9504 50.9066 27.9953 50.7026 27.9953C50.6909 27.9953 50.6681 27.9953 50.657 27.9953C50.3846 27.9953 50.1578 27.9387 49.9988 27.8145C49.8287 27.6896 49.7381 27.5088 49.7497 27.2597L50.1239 27.3163C50.1467 27.4295 50.1917 27.5199 50.2601 27.5654C50.3507 27.6441 50.4869 27.6786 50.657 27.6786C50.6681 27.6786 50.6909 27.6786 50.7026 27.6786ZM53.1525 25.7425C53.4132 25.7086 53.6172 25.6637 53.7423 25.6182C53.7423 25.5616 53.7423 25.5278 53.7423 25.5161C53.7423 25.3581 53.7084 25.2449 53.64 25.1766C53.5377 25.0979 53.3904 25.0524 53.1981 25.0524C53.1864 25.0524 53.1636 25.0524 53.1525 25.0524C52.9935 25.0524 52.8689 25.0862 52.7894 25.1428C52.6988 25.2111 52.6421 25.3242 52.5965 25.4823L52.2107 25.4374C52.2563 25.2676 52.313 25.1428 52.3808 25.0413C52.4603 24.9392 52.5854 24.8599 52.7327 24.8144C52.8573 24.7695 52.9935 24.7351 53.1525 24.7351C53.1864 24.724 53.2203 24.724 53.2542 24.724C53.4471 24.724 53.6061 24.7578 53.7312 24.8033C53.8557 24.8482 53.9352 24.9054 54.003 24.9731C54.0597 25.0413 54.0936 25.1317 54.1164 25.2332C54.1281 25.3015 54.1392 25.4257 54.1392 25.5955V26.1053C54.1392 26.467 54.1503 26.705 54.162 26.7954C54.1848 26.8858 54.207 26.9879 54.2637 27.0672H53.8557C53.8101 26.9879 53.7879 26.8975 53.7762 26.7843C53.6289 26.9086 53.4927 26.9996 53.3565 27.0445C53.2998 27.0672 53.2203 27.09 53.1525 27.1011C53.0841 27.1121 53.0051 27.1238 52.9368 27.1238C52.676 27.1238 52.4831 27.0561 52.3469 26.9424C52.2224 26.8181 52.154 26.6595 52.154 26.467C52.154 26.3538 52.1768 26.2523 52.2224 26.1619C52.2791 26.0709 52.3469 25.9916 52.4264 25.935C52.5059 25.8784 52.6082 25.8335 52.7099 25.8107C52.7783 25.788 52.9028 25.7652 53.0502 25.7541C53.0841 25.7425 53.1185 25.7425 53.1525 25.7425ZM53.1525 26.8071C53.2542 26.7954 53.3454 26.7616 53.4243 26.7161C53.5377 26.6595 53.6289 26.5691 53.6856 26.4559C53.7195 26.3655 53.7423 26.2296 53.7423 26.0598V25.9239C53.6061 25.9805 53.4132 26.0254 53.1525 26.0598C53.1408 26.0598 53.1297 26.0709 53.1069 26.0709C52.9484 26.0936 52.835 26.1164 52.7666 26.1502C52.7099 26.173 52.6532 26.2185 52.6193 26.2751C52.5854 26.3316 52.5626 26.3882 52.5626 26.4559C52.5626 26.558 52.6082 26.6484 52.6871 26.7161C52.7555 26.7843 52.8801 26.8181 53.0274 26.8181C53.073 26.8181 53.1185 26.8181 53.1525 26.8071ZM57.2017 27.0672V24.7806H57.5536V25.109C57.7237 24.8599 57.9616 24.724 58.2796 24.724C58.4152 24.724 58.5514 24.7578 58.6648 24.8033C58.7782 24.8482 58.8694 24.9165 58.9256 24.9958C58.9828 25.0746 59.0167 25.1766 59.0395 25.2898C59.0618 25.3581 59.0618 25.4823 59.0618 25.6637V27.0672H58.6765V25.6748C58.6765 25.5161 58.6648 25.403 58.6309 25.3242C58.597 25.2449 58.5514 25.1766 58.4719 25.1317C58.393 25.0862 58.3018 25.0635 58.2001 25.0635C58.03 25.0635 57.8938 25.1201 57.7687 25.2221C57.6442 25.3242 57.5875 25.5278 57.5875 25.8224V27.0672H57.2017ZM55.6134 25.7425C55.8747 25.7086 56.0788 25.6637 56.2038 25.6182C56.2038 25.5616 56.2038 25.5278 56.2038 25.5161C56.2038 25.3581 56.1694 25.2449 56.1016 25.1766C55.9993 25.0979 55.8519 25.0524 55.659 25.0524C55.6362 25.0524 55.6251 25.0524 55.6134 25.0524C55.455 25.0524 55.3299 25.0862 55.251 25.1428C55.1598 25.2111 55.1031 25.3242 55.0581 25.4823L54.6723 25.4374C54.7062 25.2676 54.7629 25.1428 54.8424 25.0413C54.9219 24.9392 55.0464 24.8599 55.1943 24.8144C55.3188 24.7695 55.455 24.7351 55.6134 24.7351C55.6479 24.724 55.6818 24.724 55.7157 24.724C55.9086 24.724 56.0676 24.7578 56.1922 24.8033C56.3056 24.8482 56.3962 24.9054 56.4529 24.9731C56.5213 25.0413 56.5552 25.1317 56.578 25.2332C56.5891 25.3015 56.6008 25.4257 56.6008 25.5955V26.1053C56.6008 26.467 56.6119 26.705 56.623 26.7954C56.6347 26.8858 56.6686 26.9879 56.7253 27.0672H56.3173C56.2717 26.9879 56.2489 26.8975 56.2378 26.7843C56.0904 26.9086 55.9542 26.9996 55.818 27.0445C55.7496 27.0672 55.6818 27.09 55.6134 27.1011C55.5456 27.1121 55.4661 27.1238 55.3983 27.1238C55.1376 27.1238 54.9447 27.0561 54.8085 26.9424C54.6723 26.8181 54.6045 26.6595 54.6045 26.467C54.6045 26.3538 54.6384 26.2523 54.6834 26.1619C54.7401 26.0709 54.8085 25.9916 54.888 25.935C54.9675 25.8784 55.0581 25.8335 55.1715 25.8107C55.2393 25.788 55.3527 25.7652 55.5117 25.7541C55.5456 25.7425 55.5795 25.7425 55.6134 25.7425ZM55.6134 26.8071C55.7157 26.7954 55.8064 26.7616 55.8858 26.7161C55.9993 26.6595 56.0904 26.5691 56.1471 26.4559C56.1811 26.3655 56.2038 26.2296 56.2038 26.0598V25.9239C56.0676 25.9805 55.8747 26.0254 55.6134 26.0598C55.6023 26.0598 55.5912 26.0709 55.5684 26.0709C55.4094 26.0936 55.296 26.1164 55.2282 26.1502C55.1598 26.173 55.1148 26.2185 55.0809 26.2751C55.0464 26.3316 55.0242 26.3882 55.0242 26.4559C55.0242 26.558 55.0692 26.6484 55.1376 26.7161C55.2165 26.7843 55.3299 26.8181 55.4889 26.8181C55.5345 26.8181 55.5684 26.8181 55.6134 26.8071ZM62.0453 23.9091H62.1132C62.3517 23.9091 62.544 23.9429 62.6919 24.0111C62.8392 24.0671 62.9526 24.1692 63.0321 24.3051C63.1227 24.43 63.1566 24.577 63.1566 24.724C63.1566 24.8482 63.1227 24.9841 63.0549 25.0979C62.9754 25.2221 62.862 25.3126 62.7147 25.3919C62.9076 25.4485 63.0549 25.5389 63.1566 25.6748C63.2589 25.8107 63.3156 25.9694 63.3156 26.1502C63.3156 26.2972 63.2817 26.4448 63.225 26.5691C63.1566 26.6933 63.0777 26.7954 62.9865 26.8631C62.8959 26.9313 62.7825 26.9768 62.6463 27.0217C62.499 27.0561 62.3289 27.0672 62.1248 27.0672H62.0453H60.9224V23.9091H62.0453ZM62.0453 25.2332C62.2155 25.2332 62.3517 25.2221 62.4306 25.1994C62.5329 25.1656 62.6124 25.1201 62.6691 25.0413C62.7258 24.9731 62.7486 24.8826 62.7486 24.7695C62.7486 24.6674 62.7258 24.5653 62.6691 24.4866C62.6235 24.4072 62.544 24.3617 62.4534 24.3279C62.3739 24.3051 62.2382 24.2824 62.0453 24.2824C62.0225 24.2824 61.9998 24.2824 61.977 24.2824H61.3421V25.2332H62.0225C62.0336 25.2332 62.0337 25.2332 62.0453 25.2332ZM62.0453 26.6933H62.1248C62.2605 26.6933 62.3628 26.6933 62.4195 26.6822C62.5101 26.6595 62.5896 26.6367 62.6574 26.5918C62.7258 26.558 62.7714 26.5014 62.8164 26.4221C62.862 26.3427 62.8848 26.2523 62.8848 26.1502C62.8848 26.0371 62.8509 25.935 62.7942 25.8446C62.7258 25.7541 62.6463 25.6976 62.5329 25.6637C62.4306 25.6293 62.2722 25.6071 62.0793 25.6071H62.0453H61.3421V26.6933H62.0453ZM66.2986 27.0672V24.7806H66.6505V25.109C66.8206 24.8599 67.0585 24.724 67.3765 24.724C67.5238 24.724 67.6483 24.7578 67.7617 24.8033C67.8751 24.8482 67.9663 24.9165 68.023 24.9958C68.0797 25.0746 68.1247 25.1766 68.1476 25.2898C68.1587 25.3581 68.1703 25.4823 68.1703 25.6637V27.0672H67.7734V25.6748C67.7734 25.5161 67.7617 25.403 67.7278 25.3242C67.705 25.2449 67.6483 25.1766 67.5688 25.1317C67.4899 25.0862 67.3993 25.0635 67.297 25.0635C67.138 25.0635 66.9907 25.1201 66.8656 25.2221C66.7522 25.3242 66.6844 25.5278 66.6844 25.8224V27.0672H66.2986ZM64.7109 25.7425C64.9716 25.7086 65.1757 25.6637 65.3008 25.6182C65.3119 25.5616 65.3119 25.5278 65.3119 25.5161C65.3119 25.3581 65.2668 25.2449 65.1985 25.1766C65.0962 25.0979 64.9488 25.0524 64.7565 25.0524C64.7448 25.0524 64.722 25.0524 64.7109 25.0524C64.5519 25.0524 64.4274 25.0862 64.3479 25.1428C64.2573 25.2111 64.2006 25.3242 64.155 25.4823L63.7803 25.4374C63.8148 25.2676 63.8715 25.1428 63.951 25.0413C64.0305 24.9392 64.1439 24.8599 64.2912 24.8144C64.4157 24.7695 64.5519 24.7351 64.7109 24.7351C64.7448 24.724 64.7787 24.724 64.8126 24.724C65.0055 24.724 65.1645 24.7578 65.2891 24.8033C65.4142 24.8482 65.5048 24.9054 65.5615 24.9731C65.6182 25.0413 65.6521 25.1317 65.6749 25.2332C65.686 25.3015 65.6977 25.4257 65.6977 25.5955V26.1053C65.6977 26.467 65.7088 26.705 65.7205 26.7954C65.7427 26.8858 65.7772 26.9879 65.8222 27.0672H65.4142C65.3802 26.9879 65.3458 26.8975 65.3347 26.7843C65.1985 26.9086 65.0511 26.9996 64.926 27.0445C64.8582 27.0672 64.7898 27.09 64.7109 27.1011C64.6425 27.1121 64.563 27.1238 64.4952 27.1238C64.2456 27.1238 64.0527 27.0561 63.9171 26.9424C63.7803 26.8181 63.7125 26.6595 63.7125 26.467C63.7125 26.3538 63.7353 26.2523 63.7803 26.1619C63.8376 26.0709 63.9054 25.9916 63.9849 25.935C64.0644 25.8784 64.1661 25.8335 64.2684 25.8107C64.3362 25.788 64.4613 25.7652 64.6086 25.7541C64.6425 25.7425 64.6764 25.7425 64.7109 25.7425ZM64.7109 26.8071C64.8126 26.7954 64.9033 26.7616 64.9827 26.7161C65.0962 26.6595 65.1873 26.5691 65.244 26.4559C65.2891 26.3655 65.3008 26.2296 65.3008 26.0598V25.9239C65.1757 25.9805 64.9716 26.0254 64.7109 26.0598C64.6992 26.0598 64.6881 26.0709 64.6653 26.0709C64.5063 26.0936 64.3929 26.1164 64.3362 26.1502C64.2684 26.173 64.2117 26.2185 64.1778 26.2751C64.1439 26.3316 64.1211 26.3882 64.1211 26.4559C64.1211 26.558 64.1661 26.6484 64.2456 26.7161C64.314 26.7843 64.4385 26.8181 64.5858 26.8181C64.6314 26.8181 64.6764 26.8181 64.7109 26.8071ZM69.6452 26.7499C69.8153 26.7499 69.9737 26.6822 70.0871 26.5463C70.2122 26.4104 70.2689 26.1957 70.2689 25.9011C70.2689 25.6182 70.2122 25.403 70.0871 25.2676C69.9626 25.1201 69.8153 25.0524 69.6452 25.0524C69.6335 25.0524 69.6335 25.0524 69.6335 25.0524C69.4634 25.0524 69.3161 25.1201 69.1916 25.256C69.0665 25.403 69.0098 25.6071 69.0098 25.8901C69.0098 26.1841 69.0665 26.3993 69.1916 26.5463C69.3161 26.6822 69.4634 26.7499 69.6452 26.7499ZM69.6452 27.6786C69.8036 27.6669 69.917 27.6331 70.0076 27.5654C70.1099 27.4971 70.1777 27.3956 70.2122 27.2708C70.235 27.1915 70.235 27.0217 70.235 26.7732C70.076 26.9651 69.8831 27.0561 69.6452 27.0672C69.6335 27.0672 69.6107 27.0672 69.5996 27.0672C69.2822 27.0672 69.0437 26.9541 68.8736 26.7277C68.7035 26.5014 68.6129 26.2296 68.6129 25.9128C68.6129 25.6976 68.6468 25.494 68.7263 25.3126C68.8058 25.1201 68.9303 24.9841 69.0776 24.8826C69.2249 24.7806 69.4067 24.724 69.6107 24.724C69.6224 24.724 69.6335 24.724 69.6452 24.724C69.8942 24.7351 70.1099 24.8482 70.28 25.0524V24.7806H70.6319V26.7616C70.6319 27.1121 70.598 27.3729 70.5296 27.5199C70.4501 27.6669 70.3367 27.7801 70.1777 27.8711C70.0304 27.9504 69.8492 27.9953 69.6452 27.9953C69.6224 27.9953 69.6107 27.9953 69.5996 27.9953C69.3272 27.9953 69.1004 27.9387 68.9303 27.8145C68.7602 27.6896 68.6807 27.5088 68.6924 27.2597L69.0665 27.3163C69.0893 27.4295 69.1232 27.5199 69.2027 27.5654C69.2933 27.6441 69.4295 27.6786 69.5996 27.6786C69.6107 27.6786 69.6224 27.6786 69.6452 27.6786Z" fill="#007697"/>
</g>
<defs>
<clipPath id="clip0_34_73">
<rect width="75.3496" height="28" fill="white" transform="translate(0.0686035)"/>
</clipPath>
</defs>
</svg>
