<svg width="1440" height="875" viewBox="0 0 1440 875" fill="none" xmlns="http://www.w3.org/2000/svg">
<path fill-rule="evenodd" clip-rule="evenodd" d="M1190.62 618.539L1309.41 737.333L1310.82 735.92L1192.03 617.126L1190.62 618.539ZM1193.52 615.632L1312.32 734.426L1313.73 733.013L1194.93 614.219L1193.52 615.632ZM1196.43 612.725L1315.22 731.519L1316.64 730.106L1197.84 611.312L1196.43 612.725ZM1199.34 609.818L1318.13 728.612L1319.54 727.199L1200.75 608.405L1199.34 609.818ZM1202.24 606.911L1321.04 725.705L1322.45 724.292L1203.66 605.498L1202.24 606.911ZM1205.15 604.004L1323.94 722.798L1325.36 721.385L1206.56 602.591L1205.15 604.004ZM1208.06 601.097L1326.85 719.891L1328.26 718.478L1209.47 599.684L1208.06 601.097ZM1210.96 598.19L1329.76 716.984L1331.17 715.571L1212.38 596.777L1210.96 598.19ZM1213.87 595.283L1332.67 714.077L1334.08 712.664L1215.28 593.87L1213.87 595.283ZM1216.78 592.376L1335.57 711.17L1336.99 709.757L1218.19 590.963L1216.78 592.376ZM1219.69 589.469L1338.48 708.263L1339.89 706.85L1221.1 588.056L1219.69 589.469ZM1222.59 586.562L1341.39 705.356L1342.8 703.943L1224.01 585.149L1222.59 586.562ZM1225.5 583.655L1344.29 702.449L1345.71 701.036L1226.91 582.242L1225.5 583.655ZM1228.41 580.748L1347.2 699.542L1348.61 698.129L1229.82 579.335L1228.41 580.748ZM1231.31 577.841L1350.11 696.634L1351.52 695.222L1232.73 576.428L1231.31 577.841ZM1234.22 574.933L1353.01 693.727L1354.43 692.315L1235.63 573.521L1234.22 574.933ZM1237.13 572.026L1355.92 690.82L1357.33 689.408L1238.54 570.614L1237.13 572.026ZM1240.03 569.119L1358.83 687.913L1360.24 686.501L1241.45 567.707L1240.03 569.119ZM1242.94 566.212L1361.74 685.006L1363.15 683.594L1244.35 564.8L1242.94 566.212ZM1245.85 563.305L1364.64 682.099L1366.06 680.687L1247.26 561.893L1245.85 563.305ZM1248.76 560.398L1367.55 679.192L1368.96 677.78L1250.17 558.986L1248.76 560.398ZM1251.66 557.491L1370.46 676.285L1371.87 674.873L1253.08 556.079L1251.66 557.491ZM1254.57 554.584L1373.36 673.378L1374.78 671.966L1255.98 553.172L1254.57 554.584ZM1257.48 551.677L1376.27 670.471L1377.68 669.059L1258.89 550.265L1257.48 551.677ZM1260.38 548.77L1379.18 667.564L1380.59 666.151L1261.8 547.358L1260.38 548.77ZM1263.29 545.863L1382.09 664.657L1383.5 663.244L1264.7 544.451L1263.29 545.863ZM1266.2 542.956L1384.99 661.75L1386.4 660.337L1267.61 541.543L1266.2 542.956ZM1269.11 540.049L1387.9 658.843L1389.31 657.43L1270.52 538.636L1269.11 540.049ZM1272.01 537.142L1390.81 655.936L1392.22 654.523L1273.42 535.729L1272.01 537.142ZM1274.92 534.235L1393.71 653.029L1395.13 651.616L1276.33 532.822L1274.92 534.235ZM1277.83 531.328L1396.62 650.122L1398.03 648.709L1279.24 529.915L1277.83 531.328ZM1280.73 528.421L1399.53 647.215L1400.94 645.802L1282.15 527.008L1280.73 528.421ZM1283.64 525.514L1402.43 644.308L1403.85 642.895L1285.05 524.101L1283.64 525.514ZM1286.55 522.607L1405.34 641.401L1406.75 639.988L1287.96 521.194L1286.55 522.607ZM1289.45 519.7L1408.25 638.494L1409.66 637.081L1290.87 518.287L1289.45 519.7ZM1292.36 516.793L1411.16 635.587L1412.57 634.174L1293.77 515.38L1292.36 516.793ZM1295.27 513.886L1414.06 632.68L1415.48 631.267L1296.68 512.473L1295.27 513.886Z" fill="white"/>
<g opacity="0.3">
<path d="M18 28C19.1046 28 20 27.1046 20 26C20 24.8954 19.1046 24 18 24C16.8954 24 16 24.8954 16 26C16 27.1046 16.8954 28 18 28Z" fill="#076563"/>
<path d="M34 28C35.1046 28 36 27.1046 36 26C36 24.8954 35.1046 24 34 24C32.8954 24 32 24.8954 32 26C32 27.1046 32.8954 28 34 28Z" fill="#076563"/>
<path d="M50 28C51.1046 28 52 27.1046 52 26C52 24.8954 51.1046 24 50 24C48.8954 24 48 24.8954 48 26C48 27.1046 48.8954 28 50 28Z" fill="#076563"/>
<path d="M66 28C67.1046 28 68 27.1046 68 26C68 24.8954 67.1046 24 66 24C64.8954 24 64 24.8954 64 26C64 27.1046 64.8954 28 66 28Z" fill="#076563"/>
<path d="M82 28C83.1046 28 84 27.1046 84 26C84 24.8954 83.1046 24 82 24C80.8954 24 80 24.8954 80 26C80 27.1046 80.8954 28 82 28Z" fill="#076563"/>
<path d="M18 44C19.1046 44 20 43.1046 20 42C20 40.8954 19.1046 40 18 40C16.8954 40 16 40.8954 16 42C16 43.1046 16.8954 44 18 44Z" fill="#076563"/>
<path d="M34 44C35.1046 44 36 43.1046 36 42C36 40.8954 35.1046 40 34 40C32.8954 40 32 40.8954 32 42C32 43.1046 32.8954 44 34 44Z" fill="#076563"/>
<path d="M50 44C51.1046 44 52 43.1046 52 42C52 40.8954 51.1046 40 50 40C48.8954 40 48 40.8954 48 42C48 43.1046 48.8954 44 50 44Z" fill="#076563"/>
<path d="M66 44C67.1046 44 68 43.1046 68 42C68 40.8954 67.1046 40 66 40C64.8954 40 64 40.8954 64 42C64 43.1046 64.8954 44 66 44Z" fill="#076563"/>
<path d="M82 44C83.1046 44 84 43.1046 84 42C84 40.8954 83.1046 40 82 40C80.8954 40 80 40.8954 80 42C80 43.1046 80.8954 44 82 44Z" fill="#076563"/>
<path d="M18 60C19.1046 60 20 59.1046 20 58C20 56.8954 19.1046 56 18 56C16.8954 56 16 56.8954 16 58C16 59.1046 16.8954 60 18 60Z" fill="#076563"/>
<path d="M34 60C35.1046 60 36 59.1046 36 58C36 56.8954 35.1046 56 34 56C32.8954 56 32 56.8954 32 58C32 59.1046 32.8954 60 34 60Z" fill="#076563"/>
<path d="M50 60C51.1046 60 52 59.1046 52 58C52 56.8954 51.1046 56 50 56C48.8954 56 48 56.8954 48 58C48 59.1046 48.8954 60 50 60Z" fill="#076563"/>
<path d="M66 60C67.1046 60 68 59.1046 68 58C68 56.8954 67.1046 56 66 56C64.8954 56 64 56.8954 64 58C64 59.1046 64.8954 60 66 60Z" fill="#076563"/>
<path d="M82 60C83.1046 60 84 59.1046 84 58C84 56.8954 83.1046 56 82 56C80.8954 56 80 56.8954 80 58C80 59.1046 80.8954 60 82 60Z" fill="#076563"/>
<path d="M18 76C19.1046 76 20 75.1046 20 74C20 72.8954 19.1046 72 18 72C16.8954 72 16 72.8954 16 74C16 75.1046 16.8954 76 18 76Z" fill="#076563"/>
<path d="M34 76C35.1046 76 36 75.1046 36 74C36 72.8954 35.1046 72 34 72C32.8954 72 32 72.8954 32 74C32 75.1046 32.8954 76 34 76Z" fill="#076563"/>
<path d="M50 76C51.1046 76 52 75.1046 52 74C52 72.8954 51.1046 72 50 72C48.8954 72 48 72.8954 48 74C48 75.1046 48.8954 76 50 76Z" fill="#076563"/>
<path d="M66 76C67.1046 76 68 75.1046 68 74C68 72.8954 67.1046 72 66 72C64.8954 72 64 72.8954 64 74C64 75.1046 64.8954 76 66 76Z" fill="#076563"/>
<path d="M82 76C83.1046 76 84 75.1046 84 74C84 72.8954 83.1046 72 82 72C80.8954 72 80 72.8954 80 74C80 75.1046 80.8954 76 82 76Z" fill="#076563"/>
<path d="M18 92C19.1046 92 20 91.1046 20 90C20 88.8954 19.1046 88 18 88C16.8954 88 16 88.8954 16 90C16 91.1046 16.8954 92 18 92Z" fill="#076563"/>
<path d="M34 92C35.1046 92 36 91.1046 36 90C36 88.8954 35.1046 88 34 88C32.8954 88 32 88.8954 32 90C32 91.1046 32.8954 92 34 92Z" fill="#076563"/>
<path d="M50 92C51.1046 92 52 91.1046 52 90C52 88.8954 51.1046 88 50 88C48.8954 88 48 88.8954 48 90C48 91.1046 48.8954 92 50 92Z" fill="#076563"/>
<path d="M66 92C67.1046 92 68 91.1046 68 90C68 88.8954 67.1046 88 66 88C64.8954 88 64 88.8954 64 90C64 91.1046 64.8954 92 66 92Z" fill="#076563"/>
<path d="M82 92C83.1046 92 84 91.1046 84 90C84 88.8954 83.1046 88 82 88C80.8954 88 80 88.8954 80 90C80 91.1046 80.8954 92 82 92Z" fill="#076563"/>
</g>
<g opacity="0.3">
<path d="M1349 34C1350.1 34 1351 33.1046 1351 32C1351 30.8954 1350.1 30 1349 30C1347.9 30 1347 30.8954 1347 32C1347 33.1046 1347.9 34 1349 34Z" fill="#076563"/>
<path d="M1365 34C1366.1 34 1367 33.1046 1367 32C1367 30.8954 1366.1 30 1365 30C1363.9 30 1363 30.8954 1363 32C1363 33.1046 1363.9 34 1365 34Z" fill="#076563"/>
<path d="M1381 34C1382.1 34 1383 33.1046 1383 32C1383 30.8954 1382.1 30 1381 30C1379.9 30 1379 30.8954 1379 32C1379 33.1046 1379.9 34 1381 34Z" fill="#076563"/>
<path d="M1397 34C1398.1 34 1399 33.1046 1399 32C1399 30.8954 1398.1 30 1397 30C1395.9 30 1395 30.8954 1395 32C1395 33.1046 1395.9 34 1397 34Z" fill="#076563"/>
<path d="M1413 34C1414.1 34 1415 33.1046 1415 32C1415 30.8954 1414.1 30 1413 30C1411.9 30 1411 30.8954 1411 32C1411 33.1046 1411.9 34 1413 34Z" fill="#076563"/>
<path d="M1349 50C1350.1 50 1351 49.1046 1351 48C1351 46.8954 1350.1 46 1349 46C1347.9 46 1347 46.8954 1347 48C1347 49.1046 1347.9 50 1349 50Z" fill="#076563"/>
<path d="M1365 50C1366.1 50 1367 49.1046 1367 48C1367 46.8954 1366.1 46 1365 46C1363.9 46 1363 46.8954 1363 48C1363 49.1046 1363.9 50 1365 50Z" fill="#076563"/>
<path d="M1381 50C1382.1 50 1383 49.1046 1383 48C1383 46.8954 1382.1 46 1381 46C1379.9 46 1379 46.8954 1379 48C1379 49.1046 1379.9 50 1381 50Z" fill="#076563"/>
<path d="M1397 50C1398.1 50 1399 49.1046 1399 48C1399 46.8954 1398.1 46 1397 46C1395.9 46 1395 46.8954 1395 48C1395 49.1046 1395.9 50 1397 50Z" fill="#076563"/>
<path d="M1413 50C1414.1 50 1415 49.1046 1415 48C1415 46.8954 1414.1 46 1413 46C1411.9 46 1411 46.8954 1411 48C1411 49.1046 1411.9 50 1413 50Z" fill="#076563"/>
<path d="M1349 66C1350.1 66 1351 65.1046 1351 64C1351 62.8954 1350.1 62 1349 62C1347.9 62 1347 62.8954 1347 64C1347 65.1046 1347.9 66 1349 66Z" fill="#076563"/>
<path d="M1365 66C1366.1 66 1367 65.1046 1367 64C1367 62.8954 1366.1 62 1365 62C1363.9 62 1363 62.8954 1363 64C1363 65.1046 1363.9 66 1365 66Z" fill="#076563"/>
<path d="M1381 66C1382.1 66 1383 65.1046 1383 64C1383 62.8954 1382.1 62 1381 62C1379.9 62 1379 62.8954 1379 64C1379 65.1046 1379.9 66 1381 66Z" fill="#076563"/>
<path d="M1397 66C1398.1 66 1399 65.1046 1399 64C1399 62.8954 1398.1 62 1397 62C1395.9 62 1395 62.8954 1395 64C1395 65.1046 1395.9 66 1397 66Z" fill="#076563"/>
<path d="M1413 66C1414.1 66 1415 65.1046 1415 64C1415 62.8954 1414.1 62 1413 62C1411.9 62 1411 62.8954 1411 64C1411 65.1046 1411.9 66 1413 66Z" fill="#076563"/>
<path d="M1349 82C1350.1 82 1351 81.1046 1351 80C1351 78.8954 1350.1 78 1349 78C1347.9 78 1347 78.8954 1347 80C1347 81.1046 1347.9 82 1349 82Z" fill="#076563"/>
<path d="M1365 82C1366.1 82 1367 81.1046 1367 80C1367 78.8954 1366.1 78 1365 78C1363.9 78 1363 78.8954 1363 80C1363 81.1046 1363.9 82 1365 82Z" fill="#076563"/>
<path d="M1381 82C1382.1 82 1383 81.1046 1383 80C1383 78.8954 1382.1 78 1381 78C1379.9 78 1379 78.8954 1379 80C1379 81.1046 1379.9 82 1381 82Z" fill="#076563"/>
<path d="M1397 82C1398.1 82 1399 81.1046 1399 80C1399 78.8954 1398.1 78 1397 78C1395.9 78 1395 78.8954 1395 80C1395 81.1046 1395.9 82 1397 82Z" fill="#076563"/>
<path d="M1413 82C1414.1 82 1415 81.1046 1415 80C1415 78.8954 1414.1 78 1413 78C1411.9 78 1411 78.8954 1411 80C1411 81.1046 1411.9 82 1413 82Z" fill="#076563"/>
<path d="M1349 98C1350.1 98 1351 97.1046 1351 96C1351 94.8954 1350.1 94 1349 94C1347.9 94 1347 94.8954 1347 96C1347 97.1046 1347.9 98 1349 98Z" fill="#076563"/>
<path d="M1365 98C1366.1 98 1367 97.1046 1367 96C1367 94.8954 1366.1 94 1365 94C1363.9 94 1363 94.8954 1363 96C1363 97.1046 1363.9 98 1365 98Z" fill="#076563"/>
<path d="M1381 98C1382.1 98 1383 97.1046 1383 96C1383 94.8954 1382.1 94 1381 94C1379.9 94 1379 94.8954 1379 96C1379 97.1046 1379.9 98 1381 98Z" fill="#076563"/>
<path d="M1397 98C1398.1 98 1399 97.1046 1399 96C1399 94.8954 1398.1 94 1397 94C1395.9 94 1395 94.8954 1395 96C1395 97.1046 1395.9 98 1397 98Z" fill="#076563"/>
<path d="M1413 98C1414.1 98 1415 97.1046 1415 96C1415 94.8954 1414.1 94 1413 94C1411.9 94 1411 94.8954 1411 96C1411 97.1046 1411.9 98 1413 98Z" fill="#076563"/>
</g>
<path d="M1138.14 375.788C1137.38 375.68 1136.6 375.791 1135.9 376.106C1135.2 376.422 1134.61 376.931 1134.18 377.572C1133.76 378.214 1133.53 378.962 1133.52 379.73C1133.5 380.498 1133.71 381.254 1134.11 381.909L1163.65 430.297C1165.61 433.497 1170.49 432.553 1171.1 428.855L1174.69 407.339C1174.83 406.48 1175.16 405.661 1175.65 404.939C1176.14 404.218 1176.77 403.609 1177.52 403.155L1196.85 391.354C1200.09 389.374 1199.07 384.419 1195.31 383.887L1138.14 375.788Z" fill="#4067F5" fill-opacity="0.74"/>
<path d="M1219.26 176.045C1218.74 176.612 1218.39 177.315 1218.26 178.071C1218.13 178.828 1218.21 179.606 1218.5 180.316C1218.8 181.027 1219.28 181.639 1219.91 182.082C1220.54 182.526 1221.28 182.781 1222.05 182.82L1278.67 185.68C1282.41 185.869 1284.38 181.305 1281.67 178.711L1265.92 163.625C1265.29 163.022 1264.8 162.291 1264.48 161.481C1264.16 160.671 1264.01 159.802 1264.06 158.932L1265.2 136.313C1265.39 132.519 1260.72 130.572 1258.16 133.379L1219.26 176.045Z" fill="#FE3525" fill-opacity="0.74"/>
<path d="M250.614 141.956C251.375 142.063 252.15 141.953 252.85 141.636C253.55 141.32 254.145 140.811 254.567 140.169C254.988 139.527 255.219 138.779 255.231 138.011C255.243 137.243 255.037 136.487 254.636 135.832L225.065 87.463C223.109 84.264 218.229 85.211 217.614 88.91L214.041 110.428C213.898 111.287 213.572 112.106 213.085 112.828C212.598 113.55 211.961 114.159 211.217 114.614L191.895 126.427C188.654 128.408 189.68 133.363 193.44 133.893L250.614 141.956Z" fill="#182D48" fill-opacity="0.74"/>
<path d="M165.837 365.736C165.659 364.989 165.272 364.308 164.722 363.772C164.172 363.236 163.481 362.868 162.729 362.71C161.978 362.552 161.197 362.611 160.477 362.88C159.758 363.15 159.13 363.618 158.667 364.23L124.45 409.432C122.187 412.422 124.852 416.619 128.519 415.839L149.855 411.301C150.707 411.12 151.588 411.125 152.439 411.314C153.289 411.504 154.089 411.874 154.783 412.4L172.841 426.069C175.87 428.362 180.107 425.596 179.226 421.902L165.837 365.736Z" fill="#26D48A" fill-opacity="0.74"/>
</svg>
