<svg width="110" height="110" viewBox="0 0 110 110" fill="none" xmlns="http://www.w3.org/2000/svg">
<g clip-path="url(#clip0_46_100)">
<circle cx="55.5" cy="90.5" r="19.5" fill="#26D48A"/>
<path d="M32.0834 52.7083C32.0834 50.885 32.8077 49.1363 34.0971 47.847C35.3864 46.5577 37.1351 45.8333 38.9584 45.8333H52.7084C54.5318 45.8333 56.2805 46.5577 57.5698 47.847C58.8591 49.1363 59.5834 50.885 59.5834 52.7083C59.5834 54.5317 58.8591 56.2804 57.5698 57.5697C56.2805 58.859 54.5318 59.5833 52.7084 59.5833H38.9584C37.1351 59.5833 35.3864 58.859 34.0971 57.5697C32.8077 56.2804 32.0834 54.5317 32.0834 52.7083ZM38.9584 36.6667H71.0418C72.8651 36.6667 74.6138 35.9423 75.9031 34.653C77.1924 33.3637 77.9167 31.615 77.9167 29.7917C77.9167 27.9683 77.1924 26.2196 75.9031 24.9303C74.6138 23.641 72.8651 22.9167 71.0418 22.9167H38.9584C37.1351 22.9167 35.3864 23.641 34.0971 24.9303C32.8077 26.2196 32.0834 27.9683 32.0834 29.7917C32.0834 31.615 32.8077 33.3637 34.0971 34.653C35.3864 35.9423 37.1351 36.6667 38.9584 36.6667ZM96.2501 91.5475V105.032C96.2499 106.012 95.959 106.971 95.414 107.786C94.8691 108.602 94.0947 109.237 93.1886 109.613C92.2825 109.988 91.2855 110.086 90.3237 109.895C89.3618 109.704 88.4782 109.231 87.7847 108.538L82.5001 103.253L77.2155 108.538C76.5219 109.231 75.6384 109.704 74.6765 109.895C73.7146 110.086 72.7176 109.988 71.8116 109.613C70.9055 109.237 70.131 108.602 69.5861 107.786C69.0412 106.971 68.7502 106.012 68.7501 105.032V91.5475C64.6025 88.4261 61.6404 83.9865 60.3508 78.9583C59.0611 73.9302 59.5206 68.6129 61.6537 63.8806C63.7868 59.1483 67.4666 55.2826 72.0882 52.9189C76.7097 50.5553 81.9979 49.8345 87.0834 50.875V25.2083C87.0834 22.1694 85.8762 19.2549 83.7273 17.1061C81.5785 14.9572 78.664 13.75 75.6251 13.75L34.4072 13.9242C32.8997 13.9199 31.4063 14.2132 30.0124 14.7872C28.6185 15.3611 27.3516 16.2044 26.2842 17.2689C25.2167 18.3333 24.3699 19.5979 23.792 20.9902C23.2142 22.3825 22.9167 23.8751 22.9167 25.3825V80.2083C22.9167 83.2473 24.124 86.1618 26.2728 88.3106C28.4217 90.4595 31.3361 91.6667 34.3751 91.6667H52.7084C54.5318 91.6667 56.2805 92.391 57.5698 93.6803C58.8591 94.9696 59.5834 96.7183 59.5834 98.5417C59.5834 100.365 58.8591 102.114 57.5698 103.403C56.2805 104.692 54.5318 105.417 52.7084 105.417H34.3751C27.692 105.408 21.2851 102.75 16.5595 98.0239C11.8338 93.2983 9.17524 86.8914 9.16675 80.2083V25.3825C9.17524 18.6994 11.8338 12.2925 16.5595 7.56689C21.2851 2.84125 27.692 0.182656 34.3751 0.174167L75.593 0C82.2809 0.00241906 88.6946 2.65804 93.4267 7.38408C98.1587 12.1101 100.822 18.5205 100.833 25.2083V59.7254C102.638 62.1094 103.953 64.8279 104.7 67.7233C105.447 70.6188 105.612 73.6337 105.186 76.5934C104.759 79.5531 103.75 82.3989 102.216 84.9658C100.682 87.5327 98.6546 89.7698 96.2501 91.5475ZM73.3334 73.3333C73.3334 75.1463 73.871 76.9186 74.8783 78.4261C75.8855 79.9335 77.3172 81.1084 78.9921 81.8022C80.6671 82.496 82.5103 82.6776 84.2884 82.3239C86.0666 81.9702 87.6999 81.0971 88.9819 79.8152C90.2639 78.5332 91.1369 76.8998 91.4906 75.1217C91.8443 73.3435 91.6628 71.5004 90.969 69.8254C90.2752 68.1504 89.1003 66.7188 87.5928 65.7115C86.0854 64.7043 84.3131 64.1667 82.5001 64.1667C80.0689 64.1667 77.7374 65.1324 76.0183 66.8515C74.2992 68.5706 73.3334 70.9022 73.3334 73.3333Z" fill="#182D48"/>
</g>
<defs>
<clipPath id="clip0_46_100">
<rect width="110" height="110" fill="white"/>
</clipPath>
</defs>
</svg>
