<svg width="74" height="74" viewBox="0 0 74 74" fill="none" xmlns="http://www.w3.org/2000/svg">
<g clip-path="url(#clip0_102_484)">
<circle cx="37.3363" cy="60.8819" r="13.1182" fill="#26D48A"/>
<path d="M21.5833 35.4583C21.5833 34.2317 22.0706 33.0553 22.9379 32.188C23.8053 31.3206 24.9817 30.8333 26.2083 30.8333H35.4583C36.6849 30.8333 37.8613 31.3206 38.7287 32.188C39.596 33.0553 40.0833 34.2317 40.0833 35.4583C40.0833 36.685 39.596 37.8614 38.7287 38.7287C37.8613 39.5961 36.6849 40.0833 35.4583 40.0833H26.2083C24.9817 40.0833 23.8053 39.5961 22.9379 38.7287C22.0706 37.8614 21.5833 36.685 21.5833 35.4583ZM26.2083 24.6667H47.7916C49.0183 24.6667 50.1946 24.1794 51.062 23.312C51.9294 22.4447 52.4166 21.2683 52.4166 20.0417C52.4166 18.815 51.9294 17.6387 51.062 16.7713C50.1946 15.9039 49.0183 15.4167 47.7916 15.4167H26.2083C24.9817 15.4167 23.8053 15.9039 22.9379 16.7713C22.0706 17.6387 21.5833 18.815 21.5833 20.0417C21.5833 21.2683 22.0706 22.4447 22.9379 23.312C23.8053 24.1794 24.9817 24.6667 26.2083 24.6667ZM64.75 61.5865V70.6577C64.7499 71.3174 64.5541 71.9623 64.1875 72.5109C63.8209 73.0594 63.3 73.4869 62.6904 73.7394C62.0809 73.9918 61.4102 74.0579 60.7631 73.9292C60.116 73.8005 59.5216 73.4829 59.055 73.0164L55.5 69.4613L51.9449 73.0164C51.4783 73.4829 50.8839 73.8005 50.2368 73.9292C49.5898 74.0579 48.919 73.9918 48.3095 73.7394C47.7 73.4869 47.179 73.0594 46.8124 72.5109C46.4458 71.9623 46.2501 71.3174 46.25 70.6577V61.5865C43.4598 59.4867 41.4671 56.5 40.5995 53.1174C39.7319 49.7349 40.041 46.1578 41.476 42.9742C42.911 39.7907 45.3865 37.1901 48.4956 35.6C51.6046 34.01 55.1621 33.525 58.5833 34.225V16.9583C58.5833 14.914 57.7712 12.9533 56.3256 11.5077C54.88 10.0621 52.9193 9.25 50.875 9.25L23.1465 9.36717C22.1325 9.36433 21.1278 9.56161 20.1901 9.94772C19.2524 10.3338 18.4 10.9012 17.682 11.6172C16.9639 12.3333 16.3942 13.184 16.0054 14.1207C15.6167 15.0573 15.4166 16.0614 15.4166 17.0755V53.9583C15.4166 56.0027 16.2288 57.9634 17.6743 59.409C19.1199 60.8545 21.0806 61.6667 23.125 61.6667H35.4583C36.6849 61.6667 37.8613 62.154 38.7287 63.0213C39.596 63.8887 40.0833 65.065 40.0833 66.2917C40.0833 67.5183 39.596 68.6947 38.7287 69.562C37.8613 70.4294 36.6849 70.9167 35.4583 70.9167H23.125C18.6291 70.911 14.319 69.1225 11.1399 65.9434C7.96085 62.7643 6.17234 58.4542 6.16663 53.9583V17.0755C6.17234 12.5796 7.96085 8.26952 11.1399 5.09046C14.319 1.91139 18.6291 0.122878 23.125 0.117167L50.8534 0C55.3525 0.00162737 59.6672 1.78814 62.8506 4.96747C66.0339 8.1468 67.8259 12.4592 67.8333 16.9583V40.1789C69.0476 41.7827 69.9317 43.6115 70.4342 45.5593C70.9368 47.5072 71.0479 49.5354 70.7612 51.5265C70.4744 53.5176 69.7954 55.432 68.7636 57.1588C67.7317 58.8856 66.3675 60.3906 64.75 61.5865V61.5865ZM49.3333 49.3333C49.3333 50.553 49.695 51.7453 50.3726 52.7594C51.0502 53.7735 52.0133 54.5639 53.1401 55.0306C54.2669 55.4973 55.5068 55.6195 56.703 55.3815C57.8992 55.1436 58.998 54.5563 59.8605 53.6938C60.7229 52.8314 61.3102 51.7326 61.5481 50.5364C61.7861 49.3402 61.664 48.1003 61.1972 46.9735C60.7305 45.8466 59.9401 44.8835 58.926 44.2059C57.9119 43.5283 56.7196 43.1667 55.5 43.1667C53.8645 43.1667 52.2959 43.8164 51.1395 44.9728C49.983 46.1293 49.3333 47.6978 49.3333 49.3333Z" fill="#182D48"/>
</g>
<defs>
<clipPath id="clip0_102_484">
<rect width="74" height="74" fill="white"/>
</clipPath>
</defs>
</svg>
