<svg width="65" height="64" viewBox="0 0 65 64" fill="none" xmlns="http://www.w3.org/2000/svg">
<path d="M10.0073 45.0562C8.07694 47.7217 6.69145 50.7418 5.93025 53.9436C5.78485 54.5811 5.80359 55.245 5.9847 55.8732C6.16582 56.5015 6.5034 57.0735 6.96583 57.5357C7.42826 57.9979 8.00042 58.3352 8.62874 58.516C9.25706 58.6968 9.92099 58.7152 10.5584 58.5695C13.7553 57.8071 16.7707 56.4225 19.4324 54.4947C20.6841 53.2448 21.3879 51.549 21.3892 49.7802C21.3904 48.0114 20.689 46.3145 19.4391 45.0629C18.1893 43.8113 16.4934 43.1074 14.7246 43.1062C12.9558 43.1049 11.259 43.8064 10.0073 45.0562ZM16.2907 51.3419C14.4999 52.4888 12.5548 53.3746 10.5139 53.9725C11.1127 51.932 11.9984 49.9869 13.1446 48.1957C13.5636 47.791 14.1249 47.567 14.7075 47.5721C15.29 47.5772 15.8473 47.8108 16.2592 48.2228C16.6712 48.6347 16.9049 49.192 16.9099 49.7746C16.915 50.3571 16.691 50.9184 16.2863 51.3374L16.2907 51.3419ZM45.8258 24.2197C45.8258 25.6929 45.2406 27.1057 44.1989 28.1474C43.1572 29.1891 41.7444 29.7743 40.2712 29.7743C38.798 29.7743 37.3852 29.1891 36.3435 28.1474C35.3018 27.1057 34.7166 25.6929 34.7166 24.2197C34.7166 22.7465 35.3018 21.3337 36.3435 20.292C37.3852 19.2503 38.798 18.6651 40.2712 18.6651C41.7444 18.6651 43.1572 19.2503 44.1989 20.292C45.2406 21.3337 45.8258 22.7465 45.8258 24.2197ZM52.4292 5.33398C47.1417 5.30255 41.9181 6.49007 37.1639 8.80436C32.4097 11.1186 28.2529 14.4974 25.016 18.6784C21.4857 18.8005 18.0233 19.6818 14.8643 21.2624C11.201 22.9493 8.21041 25.8178 6.3724 29.4077C5.94107 30.4093 5.76599 31.5025 5.86297 32.5886C5.95995 33.6748 6.32593 34.7196 6.92786 35.6289C7.53555 36.5605 8.36604 37.3257 9.34411 37.8553C10.3222 38.3849 11.4169 38.662 12.5292 38.6617H18.0527C20.1121 38.6717 22.0843 39.4942 23.5405 40.9504C24.9967 42.4066 25.8192 44.3788 25.8292 46.4382V51.9617C25.8284 53.0736 26.1049 54.168 26.6337 55.1461C27.1625 56.1241 27.9268 56.9548 28.8575 57.563C29.7668 58.165 30.8117 58.531 31.8978 58.6279C32.984 58.7249 34.0772 58.5498 35.0787 58.1185C38.6686 56.2805 41.5371 53.2899 43.224 49.6266C44.8047 46.4676 45.686 43.0052 45.808 39.4749C49.9957 36.2298 53.3786 32.0627 55.6938 27.2974C58.0089 22.5322 59.194 17.2973 59.1569 11.9995C59.1543 11.1197 58.978 10.249 58.6383 9.43745C58.2985 8.62587 57.8018 7.88934 57.1768 7.27009C56.5518 6.65085 55.8106 6.16106 54.9959 5.82882C54.1812 5.49658 53.309 5.32842 52.4292 5.33398ZM15.4887 34.218H12.5292C12.1534 34.2209 11.7831 34.1285 11.4528 33.9494C11.1225 33.7702 10.8431 33.5103 10.6406 33.1938C10.4416 32.8998 10.32 32.5604 10.287 32.207C10.254 31.8536 10.3107 31.4976 10.4517 31.1719C11.8834 28.5481 14.1325 26.4636 16.8573 25.2351C18.2652 24.5292 19.7515 23.9922 21.2855 23.6354C19.077 27.0045 17.1387 30.5431 15.4887 34.218ZM39.2625 47.6336C38.034 50.3577 35.9504 52.6066 33.3279 54.0392C33.0018 54.1804 32.6454 54.2372 32.2916 54.2042C31.9378 54.1712 31.5981 54.0495 31.3038 53.8503C30.9873 53.6478 30.7273 53.3684 30.5482 53.0381C30.3691 52.7078 30.2766 52.3375 30.2795 51.9617V49.0022C33.9545 47.3522 37.4931 45.4139 40.8622 43.2054C40.5032 44.7397 39.964 46.226 39.2558 47.6336H39.2625ZM39.5624 38.7017C36.5558 40.79 33.3818 42.6263 30.0729 44.1919C29.621 41.7659 28.4453 39.5334 26.7003 37.7884C24.9553 36.0434 22.7228 34.8676 20.2967 34.4158C21.8636 31.1098 23.7006 27.9389 25.7892 24.9352C33.2724 14.4969 41.0266 10.1043 52.4914 9.77768C53.07 9.77746 53.6259 10.003 54.0409 10.4063C54.4558 10.8096 54.697 11.3589 54.7132 11.9373C54.3866 23.4643 49.994 31.2185 39.5557 38.7017H39.5624Z" fill="#141416" stroke="#141416"/>
<circle cx="40.5" cy="24" r="8" fill="#26D48A"/>
</svg>
