<svg width="65" height="64" viewBox="0 0 65 64" fill="none" xmlns="http://www.w3.org/2000/svg">
<path d="M12.8983 45.2358C11.3152 47.727 10.2392 50.5062 9.73199 53.414C9.63651 53.9925 9.68941 54.5859 9.88574 55.1384C10.0821 55.691 10.4154 56.1847 10.8545 56.5733C11.2937 56.9619 11.8243 57.2327 12.3966 57.3604C12.9689 57.4881 13.5643 57.4685 14.127 57.3033C16.9474 56.4468 19.5716 55.0432 21.8495 53.1725V53.1725C22.902 51.9854 23.4398 50.429 23.3447 48.8454C23.2495 47.2619 22.5292 45.781 21.3422 44.7285C20.1552 43.676 18.5987 43.1382 17.0152 43.2334C15.4316 43.3285 13.9507 44.0488 12.8983 45.2358V45.2358ZM18.8654 50.5209C17.3247 51.6452 15.6315 52.5441 13.837 53.1904C14.262 51.331 14.9491 49.5416 15.8777 47.8756C16.2308 47.4905 16.7211 47.2595 17.2429 47.2323C17.7647 47.2051 18.2763 47.384 18.6675 47.7304C19.0587 48.0767 19.2982 48.5629 19.3344 49.0842C19.3707 49.6054 19.2007 50.12 18.8612 50.5172L18.8654 50.5209ZM43.8301 24.6331C43.9103 25.9519 43.4633 27.2486 42.5874 28.2378C41.7115 29.2271 40.4786 29.8279 39.1597 29.908C37.8409 29.9882 36.5442 29.5412 35.555 28.6653C34.5657 27.7895 33.9649 26.5565 33.8848 25.2377C33.8046 23.9188 34.2516 22.6222 35.1275 21.6329C36.0034 20.6437 37.2363 20.0429 38.5552 19.9627C39.874 19.8825 41.1707 20.3296 42.1599 21.2054C43.1491 22.0813 43.7499 23.3143 43.8301 24.6331V24.6331ZM48.7139 7.36667C43.9787 7.62627 39.367 8.97364 35.2368 11.3042C31.1067 13.6347 27.5692 16.8857 24.8989 20.8048C21.7452 21.1062 18.6935 22.0836 15.9515 23.6706C12.7638 25.3801 10.2426 28.1108 8.79257 31.4246C8.46093 32.3447 8.36369 33.3329 8.50961 34.3C8.65554 35.267 9.04004 36.1825 9.62839 36.9638C10.2231 37.7647 11.0082 38.4045 11.9126 38.8254C12.8171 39.2463 13.8122 39.4348 14.8079 39.374L19.7527 39.0734C21.5969 38.9703 23.4072 39.5993 24.7901 40.8237C26.173 42.0481 27.0167 43.7689 27.1376 45.612L27.4382 50.5568C27.498 51.5522 27.8051 52.5169 28.3317 53.3637C28.8583 54.2105 29.5878 54.9126 30.4541 55.4064C31.3009 55.8958 32.2562 56.1666 33.2339 56.1943C34.2115 56.222 35.1806 56.0058 36.0538 55.5652C39.1675 53.7244 41.5728 50.891 42.8836 47.5197C44.1267 44.6057 44.7272 41.458 44.6444 38.291C48.2167 35.158 51.0184 31.2433 52.8317 26.8513C54.645 22.4594 55.421 17.7084 55.0995 12.9677C55.0493 12.1802 54.8441 11.4104 54.4957 10.7023C54.1474 9.99425 53.6627 9.36192 53.0694 8.84157C52.4762 8.32121 51.7861 7.92307 51.0387 7.66998C50.2912 7.41688 49.5012 7.31381 48.7139 7.36667V7.36667ZM17.2155 35.2348L14.5661 35.3959C14.2299 35.4189 13.8933 35.3563 13.5879 35.2139C13.2824 35.0715 13.0181 34.854 12.8196 34.5817C12.6255 34.3294 12.4982 34.0322 12.4494 33.7176C12.4006 33.403 12.4319 33.0812 12.5405 32.7819C13.6794 30.3552 15.5795 28.3666 17.9519 27.1186C19.1738 26.41 20.4753 25.8484 21.8291 25.4455C20.0353 28.5818 18.4927 31.8551 17.2155 35.2348V35.2348ZM39.2286 45.9511C38.2771 48.4566 36.5342 50.5833 34.2644 52.0085C33.9802 52.1527 33.6642 52.2229 33.3457 52.2126C33.0271 52.2023 32.7164 52.1118 32.4421 51.9496C32.1477 51.7855 31.8998 51.5495 31.7214 51.2636C31.5431 50.9776 31.4402 50.6511 31.4223 50.3146L31.2613 47.6652C34.4614 45.988 37.5238 44.0602 40.4197 41.8998C40.1818 43.2928 39.78 44.6528 39.2226 45.9514L39.2286 45.9511ZM39.011 37.9387C36.4331 39.9717 33.6916 41.7884 30.8145 43.3701C30.278 41.2228 29.1039 39.2882 27.4468 37.821C25.7896 36.3538 23.7271 35.4227 21.5306 35.1502C22.7533 32.1054 24.2254 29.1666 25.9316 26.364C32.0628 16.6121 38.7656 12.2577 49.0114 11.3414C49.5294 11.3097 50.0393 11.4814 50.4327 11.8199C50.8262 12.1583 51.072 12.6369 51.118 13.1539C51.4529 23.4909 47.9425 30.6718 39.0051 37.9391L39.011 37.9387Z" fill="#141416" stroke="#141416"/>
<circle cx="39.0503" cy="24.7264" r="7.17506" transform="rotate(-3.47866 39.0503 24.7264)" fill="#26D48A"/>
</svg>
