<svg width="65" height="64" viewBox="0 0 65 64" fill="none" xmlns="http://www.w3.org/2000/svg">
<path d="M12.8983 42.2358C11.3152 44.727 10.2392 47.5062 9.73199 50.414C9.63651 50.9925 9.68941 51.5859 9.88574 52.1384C10.0821 52.691 10.4154 53.1847 10.8545 53.5733C11.2937 53.9619 11.8243 54.2327 12.3966 54.3604C12.9689 54.4881 13.5643 54.4685 14.127 54.3033C16.9474 53.4468 19.5716 52.0432 21.8495 50.1725V50.1725C22.902 48.9854 23.4398 47.429 23.3447 45.8454C23.2495 44.2619 22.5292 42.781 21.3422 41.7285C20.1552 40.676 18.5987 40.1382 17.0152 40.2334C15.4316 40.3285 13.9507 41.0488 12.8983 42.2358V42.2358ZM18.8654 47.5209C17.3247 48.6452 15.6315 49.5441 13.837 50.1904C14.262 48.331 14.9491 46.5416 15.8777 44.8756C16.2308 44.4905 16.7211 44.2595 17.2429 44.2323C17.7647 44.2051 18.2763 44.384 18.6675 44.7304C19.0587 45.0767 19.2982 45.5629 19.3344 46.0842C19.3707 46.6054 19.2007 47.12 18.8612 47.5172L18.8654 47.5209ZM43.8301 21.6331C43.9103 22.9519 43.4633 24.2486 42.5874 25.2378C41.7115 26.2271 40.4786 26.8279 39.1597 26.908C37.8409 26.9882 36.5442 26.5412 35.555 25.6653C34.5657 24.7895 33.9649 23.5565 33.8848 22.2377C33.8046 20.9188 34.2516 19.6222 35.1275 18.6329C36.0034 17.6437 37.2363 17.0429 38.5552 16.9627C39.874 16.8825 41.1707 17.3296 42.1599 18.2054C43.1491 19.0813 43.7499 20.3143 43.8301 21.6331V21.6331ZM48.7139 4.36667C43.9787 4.62627 39.367 5.97364 35.2368 8.30418C31.1067 10.6347 27.5692 13.8857 24.8989 17.8048C21.7452 18.1062 18.6935 19.0836 15.9515 20.6706C12.7638 22.3801 10.2426 25.1108 8.79257 28.4246C8.46093 29.3447 8.36369 30.3329 8.50961 31.3C8.65554 32.267 9.04004 33.1825 9.62839 33.9638C10.2231 34.7647 11.0082 35.4045 11.9126 35.8254C12.8171 36.2463 13.8122 36.4348 14.8079 36.374L19.7527 36.0734C21.5969 35.9703 23.4072 36.5993 24.7901 37.8237C26.173 39.0481 27.0167 40.7689 27.1376 42.612L27.4382 47.5568C27.498 48.5522 27.8051 49.5169 28.3317 50.3637C28.8583 51.2105 29.5878 51.9126 30.4541 52.4064C31.3009 52.8958 32.2562 53.1666 33.2339 53.1943C34.2115 53.222 35.1806 53.0058 36.0538 52.5652C39.1675 50.7244 41.5728 47.891 42.8836 44.5197C44.1267 41.6057 44.7272 38.458 44.6444 35.291C48.2167 32.158 51.0184 28.2433 52.8317 23.8513C54.645 19.4594 55.421 14.7084 55.0995 9.96774C55.0493 9.18023 54.8441 8.41037 54.4957 7.70231C54.1474 6.99425 53.6627 6.36192 53.0694 5.84157C52.4762 5.32121 51.7861 4.92307 51.0387 4.66998C50.2912 4.41688 49.5012 4.31381 48.7139 4.36667V4.36667ZM17.2155 32.2348L14.5661 32.3959C14.2299 32.4189 13.8933 32.3563 13.5879 32.2139C13.2824 32.0715 13.0181 31.854 12.8196 31.5817C12.6255 31.3294 12.4982 31.0322 12.4494 30.7176C12.4006 30.403 12.4319 30.0812 12.5405 29.7819C13.6794 27.3552 15.5795 25.3666 17.9519 24.1186C19.1738 23.41 20.4753 22.8484 21.8291 22.4455C20.0353 25.5818 18.4927 28.8551 17.2155 32.2348V32.2348ZM39.2286 42.9511C38.2771 45.4566 36.5342 47.5833 34.2644 49.0085C33.9802 49.1527 33.6642 49.2229 33.3457 49.2126C33.0271 49.2023 32.7164 49.1118 32.4421 48.9496C32.1477 48.7855 31.8998 48.5495 31.7214 48.2636C31.5431 47.9776 31.4402 47.6511 31.4223 47.3146L31.2613 44.6652C34.4614 42.988 37.5238 41.0602 40.4197 38.8998C40.1818 40.2928 39.78 41.6528 39.2226 42.9514L39.2286 42.9511ZM39.011 34.9387C36.4331 36.9717 33.6916 38.7884 30.8145 40.3701C30.278 38.2228 29.1039 36.2882 27.4468 34.821C25.7896 33.3538 23.7271 32.4227 21.5306 32.1502C22.7533 29.1054 24.2254 26.1666 25.9316 23.364C32.0628 13.6121 38.7656 9.25772 49.0114 8.34142C49.5294 8.30972 50.0393 8.48137 50.4327 8.81985C50.8262 9.15833 51.072 9.63694 51.118 10.1539C51.4529 20.4909 47.9425 27.6718 39.0051 34.9391L39.011 34.9387Z" fill="#141416" stroke="#141416"/>
<circle cx="39.0503" cy="21.7264" r="7.17506" transform="rotate(-3.47866 39.0503 21.7264)" fill="#26D48A"/>
</svg>
