<svg width="88" height="74" viewBox="0 0 88 74" fill="none" xmlns="http://www.w3.org/2000/svg">
<circle cx="71.78" cy="28.86" r="15.54" fill="#26D48A"/>
<path d="M23.7099 74C20.0932 74 16.6773 73.2938 13.4624 71.8814C10.2475 70.469 7.45121 68.4681 5.07352 65.8787C2.72932 63.2893 1.03815 60.229 0 56.698L11.7043 53.5201C12.5415 56.4122 14.0652 58.6485 16.2755 60.229C18.5192 61.776 20.9806 62.5326 23.6597 62.499C26.0374 62.499 28.1639 61.9441 30.0393 60.8344C31.9146 59.7246 33.3881 58.2281 34.4598 56.3449C35.5314 54.4281 36.0672 52.2927 36.0672 49.9386C36.0672 46.3404 34.9119 43.3306 32.6011 40.9093C30.2904 38.4881 27.3099 37.2774 23.6597 37.2774C22.5546 37.2774 21.4662 37.4288 20.3946 37.7314C19.3564 38.0341 18.3517 38.4544 17.3806 38.9925L11.855 29.4083L36.1677 8.52488L37.2226 11.4506H2.81304V0H47.1687V11.501L27.6281 30.3667L27.5276 26.7853C31.9146 27.0879 35.6486 28.3154 38.7295 30.4676C41.844 32.6199 44.2217 35.3942 45.8626 38.7907C47.5371 42.1872 48.3743 45.9032 48.3743 49.9386C48.3743 54.5122 47.2524 58.6149 45.0087 62.2468C42.7984 65.8787 39.8179 68.7539 36.0672 70.8725C32.35 72.9575 28.2309 74 23.7099 74Z" fill="#182D48"/>
<path d="M68.4026 30.8375V20.3656H57.9742V14.0097H68.4026V3.59827H74.7319V14.0097H85.1V20.3656H74.7319V30.8375H68.4026Z" fill="#182D48"/>
</svg>
