<svg width="74" height="74" viewBox="0 0 74 74" fill="none" xmlns="http://www.w3.org/2000/svg">
<g clip-path="url(#clip0_102_481)">
<circle cx="36.6636" cy="36.6637" r="13.1182" fill="#26D48A"/>
<path d="M74 30.8332C73.9964 28.4406 73.297 26.1007 71.9869 24.0986C70.6768 22.0965 68.8126 20.5187 66.6216 19.5575C66.8436 18.91 67.0872 18.2594 67.2783 17.615C67.8855 15.5807 68.0051 13.432 67.6275 11.3429C67.2498 9.25376 66.3855 7.28293 65.1046 5.58996C63.8163 3.84824 62.1358 2.4345 60.1993 1.4633C58.2628 0.4921 56.1247 -0.00924828 53.9583 -0.000121735H20.0417C17.8753 -0.00924828 15.7372 0.4921 13.8007 1.4633C11.8642 2.4345 10.1837 3.84824 8.89542 5.58996C7.61661 7.28402 6.75481 9.25549 6.37984 11.3446C6.00486 13.4338 6.12725 15.5819 6.73708 17.615C6.92825 18.2594 7.17183 18.91 7.39383 19.5575C5.1999 20.5164 3.33253 22.0932 2.01958 24.0955C0.706641 26.0977 0.00490284 28.4389 0 30.8332C0 40.5457 7.33525 51.7999 27.75 52.3641V60.1249C27.8108 60.7473 27.733 61.3755 27.522 61.9643C27.3111 62.553 26.9724 63.0878 26.5301 63.53C26.0879 63.9722 25.5532 64.311 24.9644 64.5219C24.3756 64.7328 23.7474 64.8107 23.125 64.7499H20.0417C18.815 64.7499 17.6387 65.2372 16.7713 66.1045C15.9039 66.9719 15.4167 68.1483 15.4167 69.3749C15.4167 70.6015 15.9039 71.7779 16.7713 72.6452C17.6387 73.5126 18.815 73.9999 20.0417 73.9999H53.9583C55.185 73.9999 56.3613 73.5126 57.2287 72.6452C58.0961 71.7779 58.5833 70.6015 58.5833 69.3749C58.5833 68.1483 58.0961 66.9719 57.2287 66.1045C56.3613 65.2372 55.185 64.7499 53.9583 64.7499H50.9305C50.3043 64.8167 49.6711 64.7434 49.0767 64.5354C48.4822 64.3274 47.9415 63.9899 47.4935 63.5472C47.0456 63.1046 46.7016 62.5679 46.4866 61.976C46.2715 61.3841 46.1907 60.7518 46.25 60.1249V52.3641C66.6647 51.7999 74 40.5457 74 30.8332ZM64.75 30.8332C64.75 35.7265 61.1918 40.8849 51.7568 42.5838C56.2706 38.3949 60.0443 33.4735 62.9185 28.0274C63.4618 28.2687 63.9237 28.662 64.2486 29.1598C64.5736 29.6576 64.7477 30.2387 64.75 30.8332ZM16.3047 11.1276C16.7363 10.5431 17.2995 10.0685 17.9488 9.74222C18.5981 9.41598 19.3151 9.24731 20.0417 9.24988H53.9583C54.6849 9.24731 55.4019 9.41598 56.0512 9.74222C56.7005 10.0685 57.2637 10.5431 57.6953 11.1276C58.1112 11.6693 58.3926 12.302 58.5164 12.9736C58.6402 13.6452 58.6029 14.3366 58.4076 14.991C55.9056 23.1235 51.2913 30.4467 45.0352 36.2136C42.5509 38.0687 40.5319 40.4758 39.1374 43.245C37.743 46.0141 37.0112 49.0695 37 52.1699V52.1699C36.9883 49.0687 36.2564 46.0126 34.862 43.2425C33.4676 40.4725 31.4488 38.0642 28.9648 36.2075C22.7077 30.4426 18.0931 23.1201 15.5924 14.988C15.3976 14.334 15.3605 13.6432 15.4843 12.9721C15.6082 12.3011 15.8893 11.669 16.3047 11.1276V11.1276ZM9.25 30.8332C9.2523 30.2387 9.42641 29.6576 9.75136 29.1598C10.0763 28.662 10.5382 28.2687 11.0815 28.0274C13.956 33.4742 17.7308 38.3957 22.2462 42.5838C12.8082 40.888 9.25 35.7265 9.25 30.8332Z" fill="#182D48"/>
</g>
<defs>
<clipPath id="clip0_102_481">
<rect width="74" height="74" fill="white"/>
</clipPath>
</defs>
</svg>
