<svg width="98" height="16" viewBox="0 0 98 16" fill="none" xmlns="http://www.w3.org/2000/svg">
<g clip-path="url(#clip0_309_331)">
<path d="M11.9125 4.6969L16.4031 5.3594C16.775 5.41253 17.0875 5.67503 17.2062 6.0344C17.325 6.3969 17.2281 6.79065 16.9593 7.0594L13.7031 10.2532L14.4718 14.8344C14.5343 15.2094 14.3812 15.5907 14.0687 15.8125C13.7593 16.0344 13.35 16.0625 13.0156 15.8844L9.00309 13.7438L4.99371 15.8844C4.65621 16.0625 4.24684 16.0344 3.93746 15.8125C3.62809 15.5907 3.47184 15.2094 3.53746 14.8344L4.30621 10.2532L1.04934 7.0594C0.780275 6.79065 0.68465 6.3969 0.802775 6.0344C0.920587 5.67503 1.23215 5.41253 1.60684 5.3594L6.09371 4.6969L8.10621 0.561592C8.27184 0.217342 8.62184 -0.0012207 9.00309 -0.0012207C9.38746 -0.0012207 9.73746 0.217342 9.90309 0.561592L11.9125 4.6969V4.6969Z" fill="#FDEB3C"/>
</g>
<g clip-path="url(#clip1_309_331)">
<path d="M31.9125 4.6969L36.4031 5.3594C36.775 5.41253 37.0875 5.67503 37.2062 6.0344C37.325 6.3969 37.2281 6.79065 36.9593 7.0594L33.7031 10.2532L34.4718 14.8344C34.5343 15.2094 34.3812 15.5907 34.0687 15.8125C33.7593 16.0344 33.35 16.0625 33.0156 15.8844L29.0031 13.7438L24.9937 15.8844C24.6562 16.0625 24.2468 16.0344 23.9375 15.8125C23.6281 15.5907 23.4718 15.2094 23.5375 14.8344L24.3062 10.2532L21.0493 7.0594C20.7803 6.79065 20.6846 6.3969 20.8028 6.0344C20.9206 5.67503 21.2321 5.41253 21.6068 5.3594L26.0937 4.6969L28.1062 0.561592C28.2718 0.217342 28.6218 -0.0012207 29.0031 -0.0012207C29.3875 -0.0012207 29.7375 0.217342 29.9031 0.561592L31.9125 4.6969V4.6969Z" fill="#FDEB3C"/>
</g>
<g clip-path="url(#clip2_309_331)">
<path d="M51.9125 4.6969L56.4031 5.3594C56.775 5.41253 57.0875 5.67503 57.2062 6.0344C57.325 6.3969 57.2281 6.79065 56.9593 7.0594L53.7031 10.2532L54.4718 14.8344C54.5343 15.2094 54.3812 15.5907 54.0687 15.8125C53.7593 16.0344 53.35 16.0625 53.0156 15.8844L49.0031 13.7438L44.9937 15.8844C44.6562 16.0625 44.2468 16.0344 43.9375 15.8125C43.6281 15.5907 43.4718 15.2094 43.5375 14.8344L44.3062 10.2532L41.0493 7.0594C40.7803 6.79065 40.6846 6.3969 40.8028 6.0344C40.9206 5.67503 41.2321 5.41253 41.6068 5.3594L46.0937 4.6969L48.1062 0.561592C48.2718 0.217342 48.6218 -0.0012207 49.0031 -0.0012207C49.3875 -0.0012207 49.7375 0.217342 49.9031 0.561592L51.9125 4.6969V4.6969Z" fill="#FDEB3C"/>
</g>
<g clip-path="url(#clip3_309_331)">
<path d="M71.9125 4.6969L76.4031 5.3594C76.775 5.41253 77.0875 5.67503 77.2062 6.0344C77.325 6.3969 77.2281 6.79065 76.9593 7.0594L73.7031 10.2532L74.4718 14.8344C74.5343 15.2094 74.3812 15.5907 74.0687 15.8125C73.7593 16.0344 73.35 16.0625 73.0156 15.8844L69.0031 13.7438L64.9937 15.8844C64.6562 16.0625 64.2468 16.0344 63.9375 15.8125C63.6281 15.5907 63.4718 15.2094 63.5375 14.8344L64.3062 10.2532L61.0493 7.0594C60.7803 6.79065 60.6846 6.3969 60.8028 6.0344C60.9206 5.67503 61.2321 5.41253 61.6068 5.3594L66.0937 4.6969L68.1062 0.561592C68.2718 0.217342 68.6218 -0.0012207 69.0031 -0.0012207C69.3875 -0.0012207 69.7375 0.217342 69.9031 0.561592L71.9125 4.6969V4.6969Z" fill="#FDEB3C"/>
</g>
<g clip-path="url(#clip4_309_331)">
<path d="M91.9125 4.6969L96.4031 5.3594C96.775 5.41253 97.0875 5.67503 97.2062 6.0344C97.325 6.3969 97.2281 6.79065 96.9593 7.0594L93.7031 10.2532L94.4718 14.8344C94.5343 15.2094 94.3812 15.5907 94.0687 15.8125C93.7593 16.0344 93.35 16.0625 93.0156 15.8844L89.0031 13.7438L84.9937 15.8844C84.6562 16.0625 84.2468 16.0344 83.9375 15.8125C83.6281 15.5907 83.4718 15.2094 83.5375 14.8344L84.3062 10.2532L81.0493 7.0594C80.7803 6.79065 80.6846 6.3969 80.8028 6.0344C80.9206 5.67503 81.2321 5.41253 81.6068 5.3594L86.0937 4.6969L88.1062 0.561592C88.2718 0.217342 88.6218 -0.0012207 89.0031 -0.0012207C89.3875 -0.0012207 89.7375 0.217342 89.9031 0.561592L91.9125 4.6969V4.6969Z" fill="#FDEB3C"/>
</g>
<defs>
<clipPath id="clip0_309_331">
<rect width="18" height="16" fill="white"/>
</clipPath>
<clipPath id="clip1_309_331">
<rect width="18" height="16" fill="white" transform="translate(20)"/>
</clipPath>
<clipPath id="clip2_309_331">
<rect width="18" height="16" fill="white" transform="translate(40)"/>
</clipPath>
<clipPath id="clip3_309_331">
<rect width="18" height="16" fill="white" transform="translate(60)"/>
</clipPath>
<clipPath id="clip4_309_331">
<rect width="18" height="16" fill="white" transform="translate(80)"/>
</clipPath>
</defs>
</svg>
