<svg width="65" height="64" viewBox="0 0 65 64" fill="none" xmlns="http://www.w3.org/2000/svg">
<path d="M58.5802 18.0799C58.8595 17.8002 59.0497 17.444 59.1267 17.0563C59.2038 16.6686 59.1642 16.2667 59.0129 15.9015C58.8617 15.5362 58.6056 15.224 58.277 15.0042C57.9485 14.7844 57.5621 14.667 57.1668 14.6666H49.8335V7.33327C49.8331 6.93797 49.7157 6.55163 49.4959 6.22305C49.2761 5.89448 48.9639 5.63841 48.5986 5.48718C48.2334 5.33595 47.8315 5.29634 47.4438 5.37337C47.0561 5.45039 46.6999 5.64059 46.4202 5.91994L39.7535 12.5866C39.3783 12.9613 39.1673 13.4697 39.1668 13.9999V21.5626L33.8815 26.8479C33.0913 26.6377 32.2634 26.6117 31.4616 26.7719C30.6598 26.9321 29.9054 27.2743 29.2567 27.772C28.608 28.2698 28.0822 28.9098 27.7199 29.6428C27.3575 30.3759 27.1683 31.1823 27.1668 31.9999C27.1672 32.7589 27.3295 33.5091 27.643 34.2004C27.9565 34.8916 28.414 35.508 28.9847 36.0083C29.5555 36.5086 30.2265 36.8813 30.9529 37.1015C31.6793 37.3217 32.4442 37.3843 33.1968 37.2851C33.9493 37.186 34.6719 36.9274 35.3165 36.5266C35.961 36.1258 36.5126 35.592 36.9344 34.961C37.3561 34.3299 37.6383 33.6161 37.7621 32.8673C37.8859 32.1185 37.8484 31.3518 37.6522 30.6186L42.9375 25.3333H50.5002C51.0304 25.3328 51.5388 25.1218 51.9135 24.7466L58.5802 18.0799ZM32.5002 5.33327C35.614 5.32922 38.7045 5.87167 41.6308 6.93594L37.8655 10.7013C37.7002 10.8666 37.5455 11.0479 37.4095 11.2346C32.8921 10.1677 28.15 10.6033 23.9026 12.4752C19.6551 14.3471 16.1341 17.5532 13.8735 21.6072C11.613 25.6613 10.7364 30.3419 11.3766 34.9392C12.0168 39.5365 14.1389 43.7996 17.4211 47.0817C20.7032 50.3638 24.9663 52.486 29.5636 53.1262C34.1609 53.7664 38.8415 52.8898 42.8955 50.6292C46.9495 48.3687 50.1557 44.8477 52.0276 40.6002C53.8995 36.3527 54.335 31.6107 53.2682 27.0933C53.4548 26.9546 53.6335 26.7999 53.8015 26.6346L57.5615 22.8693C58.6266 25.7955 59.1699 28.8859 59.1668 31.9999C59.1668 46.7279 47.2282 58.6666 32.5002 58.6666C17.7722 58.6666 5.8335 46.7279 5.8335 31.9999C5.8335 17.2719 17.7722 5.33327 32.5002 5.33327ZM32.5002 15.9999C33.8815 15.9999 35.2202 16.1759 36.5002 16.5066V20.4586L35.3962 21.5626C35.3518 21.6063 35.3083 21.6507 35.2655 21.6959C33.6849 21.2744 32.0286 21.2216 30.4244 21.5416C28.8202 21.8616 27.3109 22.5458 26.013 23.5414C24.7151 24.5371 23.6632 25.8176 22.9386 27.2841C22.2139 28.7507 21.8358 30.3641 21.8335 31.9999C21.8346 33.5178 22.1596 35.018 22.7869 36.4003C23.4141 37.7825 24.3291 39.0149 25.4708 40.0152C26.6125 41.0155 27.9545 41.7606 29.4072 42.2008C30.8599 42.6409 32.3898 42.7659 33.8947 42.5675C35.3995 42.3691 36.8447 41.8517 38.1337 41.0501C39.4226 40.2484 40.5256 39.1809 41.3689 37.9188C42.2123 36.6568 42.7766 35.2292 43.0241 33.7316C43.2716 32.2341 43.1966 30.7009 42.8042 29.2346L42.9375 29.1039L44.0415 27.9999H47.9962C48.8303 31.2307 48.6336 34.6414 47.4335 37.7548C46.2333 40.8682 44.0899 43.5285 41.303 45.3634C38.5161 47.1983 35.2254 48.1161 31.8911 47.9882C28.5569 47.8603 25.346 46.6933 22.7079 44.6503C20.0697 42.6073 18.1363 39.7907 17.1781 36.5945C16.2199 33.3984 16.285 29.9826 17.3641 26.8253C18.4433 23.6679 20.4825 20.9269 23.1965 18.9858C25.9105 17.0448 29.1635 16.0008 32.5002 15.9999Z" fill="#141416"/>
<circle cx="33" cy="32" r="8" fill="#26D48A"/>
</svg>
