<svg width="74" height="38" viewBox="0 0 74 38" fill="none" xmlns="http://www.w3.org/2000/svg">
<g clip-path="url(#clip0_34_78)">
<path d="M2.23309 30.7404C2.23309 30.9589 2.27263 31.1774 2.31296 31.3776C2.65064 32.5911 3.66447 33.4286 4.93768 33.4286C6.76842 33.4286 7.86292 31.9349 7.86292 29.724C7.86292 27.7933 6.86728 26.1397 4.99779 26.1397C3.80365 26.1397 2.68939 26.9566 2.33115 28.2912C2.2924 28.4907 2.23309 28.7282 2.23309 29.0076V30.7404ZM0.501992 20.4664H2.23309V26.5189H2.27263C2.88947 25.4439 4.00294 24.7473 5.55531 24.7473C7.94358 24.7473 9.63355 26.7374 9.61299 29.6662C9.61299 33.1096 7.44536 34.8226 5.29592 34.8226C3.9033 34.8226 2.78903 34.2843 2.07334 33.0107H2.01324L1.93495 34.6033H0.422119C0.462451 33.9455 0.501992 32.9695 0.501992 32.1146V20.4664Z" fill="#165680"/>
<path d="M16.656 29.6844C14.7446 29.6441 12.5777 29.9836 12.5777 31.8542C12.5777 32.9901 13.3329 33.5292 14.2274 33.5292C15.4816 33.5292 16.2772 32.7304 16.5555 31.9151C16.6156 31.7346 16.656 31.5359 16.656 31.3578V29.6844ZM18.3467 32.2927C18.3467 33.1302 18.3863 33.9455 18.5057 34.6033H16.9146L16.7746 33.3882H16.7153C16.1775 34.1458 15.1423 34.8226 13.7711 34.8226C11.8209 34.8226 10.8276 33.4492 10.8276 32.0552C10.8276 29.724 12.8956 28.4496 16.6156 28.4709V28.2707C16.6156 27.4751 16.3974 26.0408 14.4282 26.0408C13.5314 26.0408 12.5975 26.3186 11.9205 26.7587L11.522 25.603C12.3183 25.0861 13.4737 24.7473 14.6852 24.7473C17.6302 24.7473 18.3467 26.7587 18.3467 28.6886V32.2927Z" fill="#165680"/>
<path d="M21.0332 27.5733C21.0332 26.5775 21.0119 25.7629 20.9534 24.965H22.5034L22.6038 26.5585H22.6433C23.1218 25.6434 24.2353 24.7465 25.828 24.7465C27.1589 24.7465 29.2285 25.5436 29.2285 28.8477V34.6025H27.4776V29.0472C27.4776 27.4933 26.9019 26.1991 25.2499 26.1991C24.0961 26.1991 23.1993 27.0168 22.9012 27.992C22.8221 28.2105 22.7817 28.5097 22.7817 28.8097V34.6025H21.0332V27.5733Z" fill="#165680"/>
<path d="M33.5258 29.386H33.5654C33.8042 29.0472 34.1419 28.6292 34.4218 28.2905L37.2458 24.965H39.3549L35.6342 28.9285L39.8706 34.6025H37.7433L34.4218 29.9836L33.5258 30.9787V34.6025H31.7939V20.4664H33.5258V29.386Z" fill="#165680"/>
<path d="M50.3392 32.6631C48.9355 32.6631 47.7967 31.1488 47.7967 29.2831C47.7967 27.4157 48.9355 25.9022 50.3392 25.9022C51.7421 25.9022 52.8793 27.4157 52.8793 29.2831C52.8793 31.1488 51.7421 32.6631 50.3392 32.6631ZM54.2948 25.3069C54.2292 25.2294 54.1651 25.151 54.0955 25.0797C53.9832 24.9626 53.8567 24.8526 53.7223 24.7481C52.9987 24.1552 52.1225 23.8069 51.179 23.8069C50.1604 23.8069 49.2225 24.2161 48.4681 24.8977C48.4459 24.9111 48.427 24.927 48.4048 24.9388C48.3779 24.9531 48.3392 24.9721 48.2949 24.9602C48.1707 24.9278 48.0387 24.7956 48.0379 24.6056V20.6651C48.0379 20.4181 47.8346 20.2178 47.5863 20.2178H45.6702C45.4203 20.2178 45.2186 20.4181 45.2186 20.6651V20.802C45.2186 20.8076 45.217 20.8115 45.217 20.8163V21.2738L45.2202 33.9779C45.2202 34.2305 45.4242 34.4347 45.6757 34.4347H47.41C47.5207 34.4347 47.6211 34.3935 47.6994 34.327C47.7026 34.3247 47.7057 34.3247 47.7073 34.3231C47.7105 34.3207 47.7113 34.3175 47.7129 34.316C47.75 34.2835 47.7793 34.2439 47.8038 34.202H47.8046C47.8346 34.1458 47.8544 34.0872 47.8607 34.0215C47.8955 33.7405 48.0869 33.5853 48.2055 33.6257C48.2459 33.6384 48.2846 33.6581 48.3242 33.6866C48.3653 33.712 48.4048 33.7389 48.4436 33.7642C48.5614 33.8505 49.0786 34.2051 49.4788 34.3832C49.6812 34.4727 50.3241 34.692 51.0707 34.692C51.818 34.692 52.3486 34.5257 52.4736 34.4925C52.6001 34.4592 52.7235 34.4173 52.8421 34.3619C53.4273 34.1109 53.897 33.7642 54.2545 33.3265C54.608 32.8966 54.9014 32.3869 55.1378 31.8019C55.4913 31.0325 55.6922 30.149 55.6922 29.2094C55.6922 27.673 55.1544 26.2901 54.2948 25.3069Z" fill="#165680"/>
<path d="M60.6791 24.9373C60.6767 24.9119 60.6744 24.8866 60.6728 24.8621V24.5256C60.6728 24.2723 60.468 24.0673 60.2157 24.0673H58.2861C58.0322 24.0673 57.8274 24.2723 57.8274 24.5256V34.9374C57.8171 35.2025 57.4953 35.5651 57.1228 35.6553C56.9512 35.7084 56.7796 35.7329 56.6056 35.725C56.4332 35.7194 56.3146 35.7891 56.2474 35.9355C56.2213 35.9997 56.2023 36.0875 56.1873 36.1944C56.1754 36.3005 56.1904 37.4166 56.1983 37.5084C56.2054 37.6018 56.2213 37.6802 56.2474 37.7467C56.3272 37.867 56.4672 37.9462 56.6649 37.9865C56.7313 38.0142 58.014 38.0166 58.876 37.8076C59.2145 37.7269 59.4865 37.5623 59.7135 37.3905C59.9365 37.2171 60.1366 36.9986 60.3106 36.7311C60.5099 36.4129 60.619 36.0115 60.6396 35.5271C60.6451 35.3806 60.6728 34.9991 60.6728 34.954V25.4945C60.6744 25.4431 60.6759 25.3924 60.6791 25.337C60.6854 25.2048 60.6854 25.071 60.6791 24.9373Z" fill="#165680"/>
<path d="M68.0623 32.6631C66.6578 32.6631 65.5198 31.1488 65.5198 29.2831C65.5198 27.4157 66.6578 25.9022 68.0623 25.9022C69.4652 25.9022 70.6024 27.4157 70.6024 29.2831C70.6024 31.1488 69.4652 32.6631 68.0623 32.6631ZM72.0172 25.3069C71.9531 25.2294 71.8883 25.151 71.8179 25.0797C71.7056 24.9626 71.5791 24.8526 71.4454 24.7481C70.7218 24.1552 69.8456 23.8069 68.9014 23.8069C67.8836 23.8069 66.9465 24.2161 66.192 24.8977C66.1691 24.9111 66.1493 24.927 66.1264 24.9388C66.1003 24.9531 66.0631 24.9721 66.018 24.9602C65.8947 24.9278 65.761 24.7956 65.7594 24.6056V20.6651C65.7594 20.4181 65.5578 20.2178 65.3087 20.2178H63.3933C63.1434 20.2178 62.941 20.4181 62.941 20.6651V20.802C62.941 20.8076 62.9402 20.8115 62.9402 20.8163V21.2738L62.9426 33.9779C62.9426 34.2305 63.1466 34.4347 63.3989 34.4347H65.1315C65.243 34.4347 65.3443 34.3935 65.4234 34.327C65.4257 34.3247 65.4273 34.3247 65.4297 34.3231C65.4328 34.3207 65.4336 34.3175 65.4368 34.316C65.4716 34.2835 65.5024 34.2439 65.5269 34.202L65.5277 34.2004C65.5578 34.1458 65.5776 34.0872 65.5839 34.0215C65.6187 33.7405 65.8085 33.5853 65.9279 33.6257C65.9682 33.6384 66.0086 33.6581 66.0481 33.6866C66.0868 33.712 66.1264 33.7389 66.1675 33.7642C66.2838 33.8505 66.8017 34.2051 67.2019 34.3832C67.4036 34.4727 68.0457 34.692 68.7938 34.692C69.5403 34.692 70.0702 34.5257 70.1967 34.4925C70.3233 34.4592 70.4458 34.4173 70.5652 34.3619C71.1481 34.1109 71.6202 33.7642 71.9784 33.3265C72.3311 32.8966 72.6245 32.3869 72.861 31.8019C73.2137 31.0325 73.4146 30.149 73.4146 29.2094C73.4146 27.673 72.8768 26.2901 72.0172 25.3069Z" fill="#165680"/>
<path d="M59.2161 20.3326C58.9417 20.3366 58.6997 20.3983 58.4917 20.5202C58.2885 20.6445 58.1303 20.8116 58.018 21.0158C57.901 21.224 57.8433 21.4527 57.8433 21.7068C57.8433 21.9522 57.901 22.1739 58.0093 22.3781C58.1177 22.5815 58.2719 22.7438 58.4672 22.8689C58.6673 22.9892 58.8998 23.0525 59.1663 23.0565C59.466 23.0525 59.7199 22.9892 59.9279 22.8689C60.1358 22.7438 60.294 22.5815 60.4023 22.3781C60.5107 22.1739 60.5637 21.9522 60.5637 21.7068C60.5637 21.4527 60.5067 21.224 60.3976 21.0158C60.2901 20.8116 60.1319 20.6445 59.9318 20.5202C59.7325 20.3983 59.4913 20.3366 59.2161 20.3326Z" fill="#165680"/>
<path fill-rule="evenodd" clip-rule="evenodd" d="M44.6318 0C42.2372 4.08457 35.2709 7.1678 24.1774 9.34703C24.2659 8.50478 24.3545 7.66333 24.4423 6.82108C32.2239 6.0667 38.7608 3.51463 44.6318 0ZM43.6828 4.05054C41.2898 8.13511 34.3227 11.2183 23.2292 13.3976C23.3177 12.5553 23.4055 11.7139 23.4941 10.8716C31.2757 10.1172 37.8126 7.56517 43.6828 4.05054ZM42.7979 7.59446C40.4041 11.679 33.4378 14.7623 22.3442 16.9415C22.4328 16.1 22.5206 15.2578 22.6092 14.4155C30.3908 13.662 36.9269 11.1091 42.7979 7.59446Z" fill="url(#paint0_linear_34_78)"/>
</g>
<defs>
<linearGradient id="paint0_linear_34_78" x1="23.6728" y1="10.9547" x2="46.0794" y2="8.8745" gradientUnits="userSpaceOnUse">
<stop stop-color="#00418A"/>
<stop offset="1" stop-color="#FFCC00"/>
</linearGradient>
<clipPath id="clip0_34_78">
<rect width="73" height="38" fill="white" transform="translate(0.418213)"/>
</clipPath>
</defs>
</svg>
