<svg width="135" height="28" viewBox="0 0 135 28" fill="none" xmlns="http://www.w3.org/2000/svg">
<g clip-path="url(#clip0_34_63)">
<path fill-rule="evenodd" clip-rule="evenodd" d="M5.54593 2.55476H11.7372C13.1177 2.55476 14.1 2.62943 14.6853 2.77409C15.4536 2.95843 16.0406 3.31543 16.4471 3.84918C16.8488 4.38234 17.0347 4.98259 17.0042 5.65751C16.979 6.21051 16.7843 6.77518 16.4195 7.34801C16.0541 7.92434 15.5281 8.39509 14.8372 8.76784C14.1464 9.14059 13.0978 9.48184 11.6873 9.79568C13.1201 10.2034 14.0983 10.7214 14.6337 11.3567C15.1692 11.996 15.4161 12.7333 15.3779 13.5768C15.3422 14.3655 15.0313 15.146 14.4402 15.9148C13.8496 16.6837 13.0907 17.2483 12.1559 17.6053C11.2252 17.9623 9.53738 18.1385 7.09594 18.1385H0.581543L0.750444 17.715C1.38147 17.715 1.83774 17.6561 2.11455 17.5423C2.39195 17.4245 2.62067 17.2483 2.79778 17.0051C2.97371 16.7659 3.19012 16.2596 3.44933 15.4948L6.67662 5.91243C7.00446 4.93943 7.1757 4.28843 7.19036 3.95884C7.20268 3.68818 7.10181 3.46884 6.8813 3.29209C6.66079 3.11534 6.17227 3.01384 5.4087 2.98234L5.54593 2.55476ZM8.78143 9.43868C9.83119 9.42293 10.6628 9.25843 11.2839 8.94459C11.9014 8.63076 12.4099 8.11684 12.8087 7.39876C13.2039 6.68476 13.4197 6.00634 13.4479 5.37109C13.4749 4.77493 13.3077 4.28843 12.9459 3.91159C12.5881 3.53534 12.0914 3.35509 11.4598 3.37026L10.82 3.39418L8.78143 9.43868ZM8.4665 10.3014L6.15526 17.2326C6.54115 17.2443 6.82852 17.2524 7.02146 17.2524C8.73686 17.2524 9.95318 16.7776 10.6669 15.8244C11.38 14.8713 11.7612 13.8475 11.8099 12.7608C11.834 12.2393 11.7243 11.7767 11.4862 11.3765C11.244 10.9723 10.9255 10.694 10.522 10.5371C10.1233 10.3802 9.43651 10.3014 8.4665 10.3014ZM28.7686 7.64609L26.1846 15.2872L25.9102 16.2205C25.8814 16.3343 25.8656 16.4206 25.8633 16.4713C25.8592 16.5658 25.8908 16.644 25.9512 16.7146C26.0152 16.7817 26.0802 16.8167 26.1477 16.8167C26.309 16.8167 26.5394 16.6953 26.8344 16.448C26.957 16.35 27.2491 15.9971 27.7141 15.3928L28.1112 15.601C27.5182 16.5933 26.9019 17.3189 26.2621 17.778C25.6222 18.233 24.9419 18.4605 24.2282 18.4605C23.7866 18.4605 23.4564 18.3468 23.2377 18.1228C23.0154 17.8953 22.9139 17.6088 22.9292 17.2641C22.9427 16.966 23.0899 16.413 23.3749 15.601L23.6928 14.6671C22.7292 16.1931 21.8249 17.2717 20.9716 17.9069C20.4784 18.2762 19.9611 18.4605 19.421 18.4605C18.7108 18.4605 18.2117 18.17 17.922 17.5937C17.6323 17.0127 17.5044 16.3617 17.5373 15.6325C17.5854 14.5533 17.9724 13.3138 18.6979 11.9178C19.4233 10.5173 20.3458 9.39551 21.4607 8.54443C22.3797 7.83801 23.2277 7.48509 24.0042 7.48509C24.4341 7.48509 24.7754 7.61051 25.0287 7.85784C25.2774 8.10868 25.4504 8.56368 25.5431 9.22284L26.0245 7.80709L28.7686 7.64609ZM24.9754 9.83068C25.0035 9.21118 24.9249 8.76026 24.7443 8.48551C24.6147 8.29301 24.4299 8.19909 24.193 8.19909C23.9526 8.19909 23.7027 8.31284 23.4365 8.54443C22.8981 9.01868 22.2988 9.98001 21.6378 11.4354C20.9769 12.8868 20.6209 14.138 20.5734 15.1968C20.5552 15.6045 20.6092 15.895 20.7353 16.0753C20.8608 16.2561 21.0068 16.3459 21.1681 16.3459C21.5152 16.3459 21.8753 16.1458 22.2483 15.7498C22.7785 15.181 23.2711 14.4868 23.7145 13.6673C24.5044 12.2276 24.9249 10.9489 24.9754 9.83068ZM35.5944 7.48509L33.9371 12.416C34.964 10.9763 35.7299 9.99168 36.2307 9.46201C36.9673 8.69726 37.5942 8.17576 38.115 7.90101C38.6364 7.62276 39.1196 7.48509 39.5653 7.48509C39.9676 7.48509 40.3043 7.63443 40.5746 7.92843C40.8456 8.22243 40.974 8.60684 40.9529 9.08168C40.9329 9.51334 40.8151 10.0348 40.6022 10.6468L38.9026 15.5538C38.7607 15.9813 38.6856 16.2596 38.6792 16.3932C38.6762 16.4678 38.7044 16.5384 38.7572 16.5973C38.8135 16.6598 38.8709 16.6913 38.9343 16.6913C39.0088 16.6913 39.0932 16.6598 39.1788 16.5973C39.4609 16.3774 39.7471 16.0636 40.0415 15.6558C40.1172 15.5497 40.2351 15.3893 40.3981 15.1734L40.828 15.44C39.607 17.3306 38.3777 18.2762 37.1274 18.2762C36.6506 18.2762 36.2811 18.1543 36.0243 17.9069C35.7668 17.6643 35.6466 17.358 35.663 16.9893C35.6777 16.6679 35.7903 16.189 36.0037 15.5538L37.6681 10.6468C37.7813 10.3253 37.8435 10.0856 37.8499 9.93276C37.854 9.85051 37.8218 9.77584 37.7578 9.70934C37.6898 9.64284 37.6124 9.61134 37.518 9.61134C37.2259 9.61134 36.8617 9.81143 36.4301 10.2116C35.3199 11.2196 34.2227 12.7258 33.1389 14.726L32.0387 18.1385H29.0929L31.5865 10.7605C31.8281 10.0348 31.9536 9.51684 31.9677 9.21118C31.9736 9.07759 31.9466 8.97201 31.8915 8.88159C31.8323 8.79526 31.7367 8.72468 31.6012 8.67393C31.4616 8.62668 31.2024 8.59926 30.8159 8.59926L30.9655 8.16409L34.8883 7.48509H35.5944ZM50.3755 2.20184L46.7002 13.0711L49.4519 10.6351L50.3667 9.85459C50.6348 9.59151 50.8183 9.37218 50.9286 9.18784C50.9931 9.07001 51.0294 8.96384 51.0341 8.86584C51.0412 8.70484 50.9726 8.57184 50.8236 8.46218C50.6746 8.35601 50.3034 8.28134 49.7134 8.24634L49.8595 7.80709H54.5599L54.4256 8.24634C53.8638 8.37584 53.4075 8.52459 53.0533 8.69318C52.7789 8.82268 52.4381 9.03851 52.0305 9.33659C51.4265 9.78751 50.989 10.1369 50.7257 10.3802L50.1955 10.8544L50.7585 14.0243C50.9714 15.2516 51.1409 15.958 51.2623 16.1499C51.3397 16.2637 51.44 16.3226 51.5543 16.3226C51.8223 16.3226 52.156 16.0088 52.5548 15.3811C52.6141 15.2948 52.6903 15.1769 52.7918 15.0241L53.2058 15.2872C52.5818 16.3617 51.8945 17.1778 51.1432 17.7348C50.6412 18.1111 50.1955 18.2995 49.8008 18.2995C49.4108 18.2995 49.0894 18.1583 48.8378 17.8795C48.5904 17.6013 48.3587 16.868 48.1523 15.6792L47.6901 13.0711L46.3694 14.1963L45.0364 18.1385H42.0906L46.5119 5.16284C46.6984 4.61393 46.794 4.24118 46.8028 4.04926C46.8104 3.87251 46.7817 3.73134 46.7078 3.61759C46.6374 3.50793 46.5348 3.42568 46.3993 3.37026C46.268 3.31951 46.0005 3.29209 45.6023 3.29209L45.7243 2.86451L49.6818 2.20184H50.3755Z" fill="#093F7A"/>
<path fill-rule="evenodd" clip-rule="evenodd" d="M86.3884 1.8728H93.6951C94.5848 1.8728 95.3097 1.91305 95.882 1.99005C96.4503 2.07114 96.9916 2.26947 97.5083 2.58855C98.022 2.90822 98.4196 3.32997 98.6953 3.85147C98.9703 4.37647 99.0923 4.94872 99.0642 5.57289C99.0284 6.36914 98.7586 7.11814 98.2578 7.8263C97.754 8.53155 96.9781 9.04139 95.9342 9.35697L95.9325 9.4013C97.6033 9.91114 98.3985 11.0166 98.3217 12.7234C98.2654 13.9711 97.6942 15.1016 96.6004 16.1149C95.5102 17.1316 93.9966 17.638 92.0554 17.638H82.2949L86.3884 1.8728ZM89.7019 8.03572H91.3663C92.0859 8.03572 92.6454 7.98439 93.0406 7.88522C93.4406 7.78255 93.7673 7.57314 94.0212 7.25405C94.2792 6.93439 94.4118 6.6153 94.4264 6.29214C94.4434 5.90655 94.3279 5.60555 94.0722 5.38914C93.82 5.17272 93.3081 5.06655 92.5369 5.06655H90.452L89.7019 8.03572ZM88.0897 14.25H90.7059C92.5515 14.25 93.5016 13.641 93.5561 12.4224C93.5755 11.9925 93.4576 11.6547 93.2037 11.4056C92.9486 11.1595 92.4084 11.0346 91.585 11.0346H88.9284L88.0897 14.25ZM117.471 1.8728L116.486 5.74555H111.341L108.219 17.638H103.3L106.411 5.74555H101.492L102.486 1.8728H117.471ZM134.705 1.8728L130.589 17.638H126.006L122.492 8.47614H122.448L120.068 17.638H115.463L119.579 1.8728H124.162L127.653 11.0568H127.698L130.1 1.8728H134.705Z" fill="#093F7A"/>
<path fill-rule="evenodd" clip-rule="evenodd" d="M131.857 19.1791C127.788 19.3407 98.0002 20.6363 92.7919 21.4454C87.5829 22.2551 84.1645 22.2551 82.8625 23.0647C81.56 23.8744 80.5835 24.5219 82.2116 25.9791C83.839 27.4362 84.816 27.4362 86.2804 27.76C87.7454 28.0837 89.0479 28.2453 90.8384 27.1125C92.6288 25.9791 94.9078 25.3316 98.6512 24.3597C109.557 21.9313 131.857 19.1791 131.857 19.1791Z" fill="#E62129"/>
<path fill-rule="evenodd" clip-rule="evenodd" d="M63.0125 13.4181L64.9033 12.2346V14.4956L63.0213 15.7136L62.9932 15.6949L63.0125 13.4181ZM66.8063 11.0434L68.6842 9.86798L70.5327 11.0317V13.2017L68.7633 11.9977L66.8063 13.2641V11.0434ZM72.3736 12.1902L74.2954 13.3995V15.7614L72.3736 14.4541V12.1902ZM75.961 14.4477L76.0859 14.5265L74.4192 15.7042L75.961 14.4477Z" fill="#DAB96B"/>
<path fill-rule="evenodd" clip-rule="evenodd" d="M66.8063 15.6686L68.5645 14.5416L70.5327 15.7853V18.1525L68.6443 16.9065L66.7998 18.1927L65.719 17.449L66.8063 18.1799V15.6686ZM72.3736 16.9485L72.4099 16.9712L72.058 17.2016L72.3736 16.9922V16.9485Z" fill="#DAB96B"/>
<path fill-rule="evenodd" clip-rule="evenodd" d="M61.2419 14.5265V4.93588L68.6894 0.00146484L75.975 4.82855V14.4366L74.2954 15.8051V6.30555L68.8032 2.37855L63.0729 6.12355L62.9931 15.7135L61.2419 14.5265Z" fill="#093F7A"/>
<path fill-rule="evenodd" clip-rule="evenodd" d="M64.9033 16.9012V7.40223L68.7599 4.84723L72.3737 7.24181V16.9922L70.5328 18.212V8.40615L68.7282 7.21031L66.8064 8.48373V18.1799L64.9033 16.9012Z" fill="#093F7A"/>
</g>
<defs>
<clipPath id="clip0_34_63">
<rect width="134.123" height="28" fill="white" transform="translate(0.581543)"/>
</clipPath>
</defs>
</svg>
