<svg width="1440" height="875" viewBox="0 0 1440 875" fill="none" xmlns="http://www.w3.org/2000/svg">
<path fill-rule="evenodd" clip-rule="evenodd" d="M1190.62 618.539L1309.41 737.333L1310.82 735.92L1192.03 617.126L1190.62 618.539ZM1193.52 615.632L1312.32 734.426L1313.73 733.013L1194.93 614.219L1193.52 615.632ZM1196.43 612.725L1315.22 731.519L1316.64 730.106L1197.84 611.312L1196.43 612.725ZM1199.34 609.818L1318.13 728.612L1319.54 727.199L1200.75 608.405L1199.34 609.818ZM1202.24 606.911L1321.04 725.705L1322.45 724.292L1203.66 605.498L1202.24 606.911ZM1205.15 604.004L1323.94 722.798L1325.36 721.385L1206.56 602.591L1205.15 604.004ZM1208.06 601.097L1326.85 719.891L1328.26 718.478L1209.47 599.684L1208.06 601.097ZM1210.96 598.19L1329.76 716.984L1331.17 715.571L1212.38 596.777L1210.96 598.19ZM1213.87 595.283L1332.67 714.077L1334.08 712.664L1215.28 593.87L1213.87 595.283ZM1216.78 592.376L1335.57 711.17L1336.99 709.757L1218.19 590.963L1216.78 592.376ZM1219.69 589.469L1338.48 708.263L1339.89 706.85L1221.1 588.056L1219.69 589.469ZM1222.59 586.562L1341.39 705.356L1342.8 703.943L1224.01 585.149L1222.59 586.562ZM1225.5 583.655L1344.29 702.449L1345.71 701.036L1226.91 582.242L1225.5 583.655ZM1228.41 580.748L1347.2 699.542L1348.61 698.129L1229.82 579.335L1228.41 580.748ZM1231.31 577.841L1350.11 696.634L1351.52 695.222L1232.73 576.428L1231.31 577.841ZM1234.22 574.933L1353.01 693.727L1354.43 692.315L1235.63 573.521L1234.22 574.933ZM1237.13 572.026L1355.92 690.82L1357.33 689.408L1238.54 570.614L1237.13 572.026ZM1240.03 569.119L1358.83 687.913L1360.24 686.501L1241.45 567.707L1240.03 569.119ZM1242.94 566.212L1361.74 685.006L1363.15 683.594L1244.35 564.8L1242.94 566.212ZM1245.85 563.305L1364.64 682.099L1366.06 680.687L1247.26 561.893L1245.85 563.305ZM1248.76 560.398L1367.55 679.192L1368.96 677.78L1250.17 558.986L1248.76 560.398ZM1251.66 557.491L1370.46 676.285L1371.87 674.873L1253.08 556.079L1251.66 557.491ZM1254.57 554.584L1373.36 673.378L1374.78 671.966L1255.98 553.172L1254.57 554.584ZM1257.48 551.677L1376.27 670.471L1377.68 669.059L1258.89 550.265L1257.48 551.677ZM1260.38 548.77L1379.18 667.564L1380.59 666.151L1261.8 547.358L1260.38 548.77ZM1263.29 545.863L1382.09 664.657L1383.5 663.244L1264.7 544.451L1263.29 545.863ZM1266.2 542.956L1384.99 661.75L1386.4 660.337L1267.61 541.543L1266.2 542.956ZM1269.11 540.049L1387.9 658.843L1389.31 657.43L1270.52 538.636L1269.11 540.049ZM1272.01 537.142L1390.81 655.936L1392.22 654.523L1273.42 535.729L1272.01 537.142ZM1274.92 534.235L1393.71 653.029L1395.13 651.616L1276.33 532.822L1274.92 534.235ZM1277.83 531.328L1396.62 650.122L1398.03 648.709L1279.24 529.915L1277.83 531.328ZM1280.73 528.421L1399.53 647.215L1400.94 645.802L1282.15 527.008L1280.73 528.421ZM1283.64 525.514L1402.43 644.308L1403.85 642.895L1285.05 524.101L1283.64 525.514ZM1286.55 522.607L1405.34 641.401L1406.75 639.988L1287.96 521.194L1286.55 522.607ZM1289.45 519.7L1408.25 638.494L1409.66 637.081L1290.87 518.287L1289.45 519.7ZM1292.36 516.793L1411.16 635.587L1412.57 634.174L1293.77 515.38L1292.36 516.793ZM1295.27 513.886L1414.06 632.68L1415.48 631.267L1296.68 512.473L1295.27 513.886Z" fill="white"/>
<g opacity="0.3">
<circle cx="18" cy="26" r="2" fill="#076563"/>
<circle cx="34" cy="26" r="2" fill="#076563"/>
<circle cx="50" cy="26" r="2" fill="#076563"/>
<circle cx="66" cy="26" r="2" fill="#076563"/>
<circle cx="82" cy="26" r="2" fill="#076563"/>
<circle cx="18" cy="42" r="2" fill="#076563"/>
<circle cx="34" cy="42" r="2" fill="#076563"/>
<circle cx="50" cy="42" r="2" fill="#076563"/>
<circle cx="66" cy="42" r="2" fill="#076563"/>
<circle cx="82" cy="42" r="2" fill="#076563"/>
<circle cx="18" cy="58" r="2" fill="#076563"/>
<circle cx="34" cy="58" r="2" fill="#076563"/>
<circle cx="50" cy="58" r="2" fill="#076563"/>
<circle cx="66" cy="58" r="2" fill="#076563"/>
<circle cx="82" cy="58" r="2" fill="#076563"/>
<circle cx="18" cy="74" r="2" fill="#076563"/>
<circle cx="34" cy="74" r="2" fill="#076563"/>
<circle cx="50" cy="74" r="2" fill="#076563"/>
<circle cx="66" cy="74" r="2" fill="#076563"/>
<circle cx="82" cy="74" r="2" fill="#076563"/>
<circle cx="18" cy="90" r="2" fill="#076563"/>
<circle cx="34" cy="90" r="2" fill="#076563"/>
<circle cx="50" cy="90" r="2" fill="#076563"/>
<circle cx="66" cy="90" r="2" fill="#076563"/>
<circle cx="82" cy="90" r="2" fill="#076563"/>
</g>
<g opacity="0.3">
<circle cx="1349" cy="32" r="2" fill="#076563"/>
<circle cx="1365" cy="32" r="2" fill="#076563"/>
<circle cx="1381" cy="32" r="2" fill="#076563"/>
<circle cx="1397" cy="32" r="2" fill="#076563"/>
<circle cx="1413" cy="32" r="2" fill="#076563"/>
<circle cx="1349" cy="48" r="2" fill="#076563"/>
<circle cx="1365" cy="48" r="2" fill="#076563"/>
<circle cx="1381" cy="48" r="2" fill="#076563"/>
<circle cx="1397" cy="48" r="2" fill="#076563"/>
<circle cx="1413" cy="48" r="2" fill="#076563"/>
<circle cx="1349" cy="64" r="2" fill="#076563"/>
<circle cx="1365" cy="64" r="2" fill="#076563"/>
<circle cx="1381" cy="64" r="2" fill="#076563"/>
<circle cx="1397" cy="64" r="2" fill="#076563"/>
<circle cx="1413" cy="64" r="2" fill="#076563"/>
<circle cx="1349" cy="80" r="2" fill="#076563"/>
<circle cx="1365" cy="80" r="2" fill="#076563"/>
<circle cx="1381" cy="80" r="2" fill="#076563"/>
<circle cx="1397" cy="80" r="2" fill="#076563"/>
<circle cx="1413" cy="80" r="2" fill="#076563"/>
<circle cx="1349" cy="96" r="2" fill="#076563"/>
<circle cx="1365" cy="96" r="2" fill="#076563"/>
<circle cx="1381" cy="96" r="2" fill="#076563"/>
<circle cx="1397" cy="96" r="2" fill="#076563"/>
<circle cx="1413" cy="96" r="2" fill="#076563"/>
</g>
<path d="M1092.14 377.788C1091.38 377.68 1090.6 377.791 1089.9 378.106C1089.2 378.422 1088.61 378.931 1088.18 379.572C1087.76 380.214 1087.53 380.962 1087.52 381.73C1087.5 382.498 1087.71 383.254 1088.11 383.909L1117.65 432.297C1119.61 435.497 1124.49 434.553 1125.1 430.855L1128.69 409.339C1128.83 408.48 1129.16 407.661 1129.65 406.939C1130.14 406.218 1130.77 405.609 1131.52 405.155L1150.85 393.354C1154.09 391.374 1153.07 386.419 1149.31 385.887L1092.14 377.788Z" fill="#4067F5" fill-opacity="0.74"/>
<path d="M1132.26 176.045C1131.74 176.612 1131.39 177.315 1131.26 178.071C1131.13 178.828 1131.21 179.606 1131.5 180.316C1131.8 181.027 1132.28 181.639 1132.91 182.082C1133.54 182.526 1134.28 182.781 1135.05 182.82L1191.67 185.68C1195.41 185.869 1197.38 181.305 1194.67 178.711L1178.92 163.625C1178.29 163.022 1177.8 162.291 1177.48 161.481C1177.16 160.671 1177.01 159.802 1177.06 158.932L1178.2 136.313C1178.39 132.519 1173.72 130.572 1171.16 133.379L1132.26 176.045Z" fill="#FE3525" fill-opacity="0.74"/>
<path d="M250.614 166.956C251.375 167.063 252.15 166.953 252.85 166.636C253.55 166.32 254.145 165.811 254.567 165.169C254.988 164.527 255.219 163.779 255.231 163.011C255.243 162.243 255.037 161.487 254.636 160.832L225.065 112.463C223.109 109.264 218.229 110.211 217.614 113.91L214.041 135.428C213.898 136.287 213.572 137.106 213.085 137.828C212.598 138.55 211.961 139.159 211.217 139.614L191.895 151.427C188.654 153.408 189.68 158.363 193.44 158.893L250.614 166.956Z" fill="#182D48" fill-opacity="0.74"/>
<path d="M165.837 329.736C165.659 328.989 165.272 328.308 164.722 327.772C164.172 327.236 163.481 326.868 162.729 326.71C161.978 326.552 161.197 326.611 160.477 326.88C159.758 327.15 159.13 327.618 158.667 328.23L124.45 373.432C122.187 376.422 124.852 380.619 128.519 379.839L149.855 375.301C150.707 375.12 151.588 375.125 152.439 375.314C153.289 375.504 154.089 375.874 154.783 376.4L172.841 390.069C175.87 392.362 180.107 389.596 179.226 385.902L165.837 329.736Z" fill="#26D48A" fill-opacity="0.74"/>
</svg>
