<svg width="118" height="100" viewBox="0 0 118 100" fill="none" xmlns="http://www.w3.org/2000/svg">
<circle cx="97" cy="39" r="21" fill="#26D48A"/>
<path d="M32.0404 100C27.1529 100 22.5369 99.0457 18.1924 97.137C13.848 95.2284 10.0692 92.5244 6.85611 89.0252C3.68827 85.526 1.4029 81.3906 0 76.619L15.8166 72.3245C16.9479 76.2327 19.007 79.2547 21.9939 81.3906C25.0259 83.481 28.3522 84.5035 31.9725 84.4581C35.1856 84.4581 38.0593 83.7083 40.5936 82.2086C43.1279 80.7089 45.1191 78.6867 46.5672 76.1418C48.0154 73.5515 48.7395 70.6658 48.7395 67.4847C48.7395 62.6221 47.1782 58.5549 44.0556 55.2829C40.933 52.0109 36.9053 50.3749 31.9725 50.3749C30.4791 50.3749 29.0084 50.5794 27.5602 50.9884C26.1573 51.3974 24.7997 51.9655 23.4873 52.6926L16.0202 39.741L48.8752 11.5201L50.3008 15.4738H3.80141V0H63.7415V15.5419L37.3353 41.0361L37.1995 36.1963C43.1279 36.6053 48.1738 38.264 52.3372 41.1725C56.5459 44.0809 59.759 47.83 61.9765 52.4199C64.2393 57.0098 65.3706 62.0314 65.3706 67.4847C65.3706 73.6651 63.8546 79.2093 60.8225 84.1172C57.8357 89.0252 53.808 92.9107 48.7395 95.7737C43.7162 98.5912 38.1498 100 32.0404 100Z" fill="#182D48"/>
<path d="M92.4359 41.6724V27.521H78.3436V18.9321H92.4359V4.86253H100.989V18.9321H115V27.521H100.989V41.6724H92.4359Z" fill="#182D48"/>
</svg>
