<svg width="110" height="110" viewBox="0 0 110 110" fill="none" xmlns="http://www.w3.org/2000/svg">
<g clip-path="url(#clip0_47_104)">
<circle cx="54.5" cy="54.5" r="19.5" fill="#26D48A"/>
<path d="M110 45.8333C109.995 42.2767 108.955 38.7984 107.008 35.8223C105.06 32.8463 102.289 30.5009 99.0321 29.072C99.3621 28.1095 99.7242 27.1424 100.008 26.1845C100.911 23.1606 101.089 19.9666 100.527 16.8611C99.966 13.7557 98.6812 10.8261 96.7771 8.30952C94.8621 5.72047 92.364 3.61897 89.4854 2.1753C86.6068 0.731619 83.4286 -0.0136287 80.2083 -6.21857e-05H29.7917C26.5714 -0.0136287 23.3932 0.731619 20.5146 2.1753C17.636 3.61897 15.138 5.72047 13.2229 8.30952C11.322 10.8277 10.0409 13.7583 9.48354 16.8638C8.92614 19.9693 9.10807 23.1624 10.0146 26.1845C10.2987 27.1424 10.6608 28.1095 10.9908 29.072C7.72958 30.4975 4.95376 32.8414 3.00209 35.8177C1.05041 38.794 0.00728801 42.2741 0 45.8333C0 60.2708 10.9038 76.9999 41.25 77.8387V89.3749C41.3404 90.3002 41.2247 91.234 40.9111 92.1092C40.5976 92.9844 40.094 93.7792 39.4367 94.4366C38.7793 95.094 37.9844 95.5975 37.1092 95.9111C36.2341 96.2246 35.3003 96.3403 34.375 96.2499H29.7917C27.9683 96.2499 26.2196 96.9743 24.9303 98.2636C23.641 99.5529 22.9167 101.302 22.9167 103.125C22.9167 104.948 23.641 106.697 24.9303 107.986C26.2196 109.276 27.9683 110 29.7917 110H80.2083C82.0317 110 83.7804 109.276 85.0697 107.986C86.359 106.697 87.0833 104.948 87.0833 103.125C87.0833 101.302 86.359 99.5529 85.0697 98.2636C83.7804 96.9743 82.0317 96.2499 80.2083 96.2499H75.7075C74.7767 96.3492 73.8354 96.2403 72.9518 95.9311C72.0682 95.6219 71.2644 95.1202 70.5985 94.4622C69.9326 93.8043 69.4214 93.0065 69.1017 92.1266C68.782 91.2468 68.6618 90.3069 68.75 89.3749V77.8387C99.0963 76.9999 110 60.2708 110 45.8333ZM96.25 45.8333C96.25 53.107 90.9608 60.7749 76.9358 63.3004C83.6456 57.0736 89.2551 49.758 93.5275 41.6624C94.3351 42.0212 95.0217 42.6058 95.5047 43.3458C95.9878 44.0858 96.2466 44.9496 96.25 45.8333ZM24.2367 16.5412C24.8782 15.6723 25.7155 14.9668 26.6806 14.4818C27.6458 13.9969 28.7116 13.7461 29.7917 13.7499H80.2083C81.2884 13.7461 82.3542 13.9969 83.3194 14.4818C84.2845 14.9668 85.1218 15.6723 85.7633 16.5412C86.3815 17.3464 86.7998 18.2869 86.9839 19.2852C87.1679 20.2836 87.1125 21.3113 86.8221 22.2841C83.103 34.3728 76.2438 45.2587 66.9442 53.8312C63.2514 56.5887 60.2501 60.1669 58.1773 64.2832C56.1044 68.3995 55.0167 72.9412 55 77.5499C54.9826 72.9401 53.8946 68.3972 51.8219 64.2796C49.7491 60.1619 46.7483 56.582 43.0558 53.822C33.7547 45.2527 26.8951 34.3678 23.1779 22.2795C22.8883 21.3074 22.8332 20.2805 23.0173 19.283C23.2013 18.2856 23.6192 17.3459 24.2367 16.5412ZM13.75 45.8333C13.7534 44.9496 14.0122 44.0858 14.4953 43.3458C14.9783 42.6058 15.6649 42.0212 16.4725 41.6624C20.7454 49.759 26.3565 57.0748 33.0688 63.3004C19.0392 60.7795 13.75 53.107 13.75 45.8333Z" fill="#182D48"/>
</g>
<defs>
<clipPath id="clip0_47_104">
<rect width="110" height="110" fill="white"/>
</clipPath>
</defs>
</svg>
